<?xml version="1.0" encoding="UTF-8"?>
<svg xmlns="http://www.w3.org/2000/svg" xmlns:xlink="http://www.w3.org/1999/xlink" version="1.2" >
<font id="Simple Oblique">
<font-face  font-family="Simple" units-per-em="1000" ascent="750" descent="-250" font-style="italic" font-weight="400" font-stretch="normal" slope="-12" cap-height="750" x-height="500" underline-position="-123" underline-thickness="20" />
<missing-glyph  horiz-adv-x="550" d="M325 259 C325 262 326 266 326 269 C326 302 302 326 268 326 C231 326 196 296 190 259 C189 255 189 252 189 248 C189 216 213 191 246 191 C284 191 319 221 325 259 L325 259 Z " />
<glyph glyph-name="NULL" horiz-adv-x="550" d="" />
<glyph glyph-name="CR" unicode="&#xd;" horiz-adv-x="550" d="" />
<glyph glyph-name="space" unicode="&#x20;" horiz-adv-x="550" d="" />
<glyph glyph-name="exclam" unicode="&#x21;" horiz-adv-x="550" d="M303 124 L303 125 C303 131 299 135 294 135 L181 135 C175 135 169 130 168 124 L150 11 L150 10 C150 4 155 0 160 0 L272 0 C278 0 285 5 285 11 L303 124 Z M366 731 C366 732 366 732 366 733 C366 738 362 742 356 742 L311 742 C305 742 299 737 298 731 L220 236 L220 235 C220 229 224 225 229 225 L274 225 C280 225 286 230 287 236 L366 731 Z " />
<glyph glyph-name="quotedbl" unicode="&#x22;" horiz-adv-x="550" d="M298 731 C298 732 298 732 298 733 C298 738 294 742 289 742 L176 742 C170 742 164 737 163 731 L145 619 C145 618 145 618 145 617 C145 612 149 607 155 607 L211 607 L209 596 C204 565 175 540 144 540 C138 540 132 535 131 529 L124 484 C124 483 124 483 124 482 C124 477 128 472 134 472 C202 472 266 528 277 596 L298 731 Z M501 731 C501 732 501 732 501 733 C501 738 497 742 491 742 L379 742 C373 742 367 737 366 731 L348 619 C348 618 348 618 348 617 C348 612 352 607 357 607 L414 607 L412 596 C407 565 378 540 347 540 C341 540 335 535 334 529 L327 484 C326 483 326 483 326 482 C326 477 331 472 336 472 C404 472 469 528 479 596 L501 731 Z " />
<glyph glyph-name="numbersign" unicode="&#x23;" horiz-adv-x="550" d="M361 450 L308 292 L187 292 L240 450 L361 450 Z M544 506 C544 507 544 507 544 508 C544 513 540 517 534 517 L452 517 L523 729 C523 731 524 732 524 733 C524 739 520 742 514 742 L468 742 C464 742 457 738 456 733 L383 517 L262 517 L333 729 C334 731 334 732 334 733 C334 739 330 742 324 742 L279 742 C274 742 268 738 266 733 C201 538 193 515 193 515 L194 517 L102 517 C96 517 90 512 89 506 L81 461 L81 460 C81 454 85 450 91 450 L171 450 L118 292 L26 292 C20 292 14 287 13 281 L6 236 L6 235 C6 229 10 225 16 225 L96 225 L25 13 C24 12 24 10 24 9 C24 4 28 0 34 0 L80 0 C84 0 91 5 92 9 L164 225 L286 225 L215 13 C214 12 214 10 214 9 C214 4 218 0 224 0 L269 0 C274 0 280 5 282 9 L354 225 L448 225 C454 225 460 230 461 236 L469 281 C469 282 469 282 469 283 C469 288 465 292 459 292 L377 292 L429 450 L524 450 C530 450 536 455 537 461 L544 506 Z " />
<glyph glyph-name="dollar" unicode="&#x24;" horiz-adv-x="550" d="M489 585 C490 594 491 603 491 612 C491 685 441 742 369 752 L380 821 C380 822 380 822 380 823 C380 828 376 832 371 832 L326 832 C320 832 313 827 313 821 L302 752 C217 741 142 671 129 585 L124 551 C122 540 121 529 121 519 C121 345 372 355 372 213 C372 206 371 199 370 191 L365 157 C356 102 304 56 248 56 L203 56 C152 56 116 93 116 142 C116 147 117 152 117 157 L121 180 C121 181 121 181 121 182 C121 187 117 191 111 191 L66 191 C61 191 54 186 53 180 L50 157 C48 148 48 140 48 131 C48 54 103 -6 181 -11 L170 -79 L170 -80 C170 -86 174 -90 179 -90 L224 -90 C230 -90 237 -85 237 -79 L248 -11 C337 -5 418 68 432 157 L438 191 C440 204 441 215 441 226 C441 406 189 398 189 532 C189 538 190 545 191 551 L196 585 C205 641 258 686 314 686 L336 686 C387 686 423 649 423 601 C423 596 422 590 421 585 L418 562 L418 561 C418 556 422 551 427 551 L472 551 C478 551 484 557 485 562 L489 585 Z " />
<glyph glyph-name="percent" unicode="&#x25;" horiz-adv-x="550" d="M401 208 L380 73 C377 58 363 45 347 45 L325 45 C311 45 301 55 301 69 C301 70 301 72 301 73 L322 208 C325 224 339 236 355 236 L377 236 C391 236 401 226 401 213 C401 211 401 210 401 208 L401 208 Z M249 669 L228 534 C225 519 211 506 195 506 L173 506 C159 506 149 517 149 530 C149 531 149 533 149 534 L170 669 C173 685 187 697 203 697 L225 697 C239 697 249 687 249 674 C249 672 249 671 249 669 L249 669 Z M457 208 C458 213 458 217 458 221 C458 262 428 292 386 292 L364 292 C317 292 273 255 266 208 L245 73 C244 69 244 64 244 60 C244 20 274 -11 316 -11 L338 -11 C385 -11 429 27 436 73 L457 208 Z M462 506 L436 538 C434 540 431 541 428 541 C425 541 422 540 420 538 L89 253 C86 250 84 246 84 243 C84 241 85 238 86 237 L113 205 C115 203 118 202 121 202 C124 202 127 203 129 205 L460 490 C463 493 464 497 464 500 C464 503 464 505 462 506 L462 506 Z M305 669 C306 674 306 678 306 683 C306 723 276 754 234 754 L212 754 C165 754 121 716 114 669 L93 534 C92 530 92 525 92 521 C92 481 122 450 164 450 L186 450 C233 450 277 488 284 534 L305 669 Z " />
<glyph glyph-name="ampersand" unicode="&#x26;" horiz-adv-x="550" d="M325 87 C304 68 276 56 248 56 L203 56 C152 56 116 93 116 142 C116 147 117 152 117 157 L137 281 C144 325 165 353 193 367 L325 87 Z M489 585 C490 594 491 603 491 612 C491 692 431 754 347 754 L324 754 C231 754 144 678 129 585 L127 574 C126 565 125 557 125 549 C125 501 147 463 167 422 C114 395 81 351 69 281 L50 157 C48 148 48 140 48 131 C48 50 108 -11 192 -11 L237 -11 C279 -11 319 4 353 29 L370 -8 C372 -11 375 -13 379 -13 C381 -13 383 -12 385 -11 L427 13 C431 15 434 20 434 24 C434 26 434 27 433 28 L405 86 C419 108 428 132 432 157 L459 326 C459 327 459 327 459 328 C459 333 455 337 450 337 L405 337 C399 337 393 332 392 326 L367 168 L200 523 C195 533 193 544 193 557 C193 562 194 568 195 574 L196 585 C205 641 258 686 314 686 L336 686 C387 686 423 649 423 601 C423 596 422 590 421 585 L405 484 C405 483 405 483 405 482 C405 477 409 472 415 472 L460 472 C466 472 472 478 473 484 L489 585 Z " />
<glyph glyph-name="quotesingle" unicode="&#x27;" horiz-adv-x="550" d="M400 731 C400 732 400 732 400 733 C400 738 395 742 390 742 L278 742 C272 742 265 737 265 731 L247 619 C247 618 247 618 247 617 C247 612 251 607 256 607 L312 607 L311 596 C306 565 277 540 245 540 C239 540 233 535 232 529 L225 484 C225 483 225 483 225 482 C225 477 229 472 235 472 C303 472 367 528 378 596 L400 731 Z " />
<glyph glyph-name="parenleft" unicode="&#x28;" horiz-adv-x="550" d="M433 731 C433 732 433 732 433 733 C433 738 429 742 424 742 L401 742 C308 742 221 667 206 574 L106 -56 C105 -65 104 -74 104 -83 C104 -163 164 -225 248 -225 L271 -225 C277 -225 283 -220 284 -214 L291 -169 C291 -168 291 -168 291 -167 C291 -162 287 -158 281 -158 L259 -158 C208 -158 172 -121 172 -72 C172 -67 173 -62 174 -56 L273 574 C282 630 335 675 391 675 L413 675 C419 675 425 680 426 686 L433 731 Z " />
<glyph glyph-name="parenright" unicode="&#x29;" horiz-adv-x="550" d="M408 574 C410 583 410 592 410 600 C410 681 350 742 266 742 L244 742 C238 742 232 737 231 731 L224 686 L224 685 C224 679 228 675 233 675 L256 675 C306 675 342 638 342 590 C342 585 342 579 341 574 L241 -56 C232 -112 180 -158 124 -158 L101 -158 C95 -158 89 -163 88 -169 L81 -214 L81 -215 C81 -221 85 -225 91 -225 L113 -225 C206 -225 294 -149 309 -56 L408 574 Z " />
<glyph glyph-name="asterisk" unicode="&#x2a;" horiz-adv-x="550" d="M498 574 L498 575 C498 581 494 585 489 585 L489 585 L361 582 L445 690 C446 692 447 695 447 697 C447 701 446 704 443 706 L408 728 C406 729 404 730 402 730 C398 730 394 728 392 724 L313 612 L270 724 C269 728 265 730 261 730 C259 730 257 729 255 728 L213 706 C208 703 206 698 206 694 C206 693 206 691 206 690 L256 582 L129 585 L129 585 L129 585 C123 585 117 580 116 574 L109 529 C109 528 109 528 109 527 C109 522 113 517 118 517 L118 517 L246 521 L162 412 C161 410 160 407 160 405 C160 402 161 399 164 397 L199 374 C201 373 203 373 205 373 C209 373 213 375 215 378 L294 490 L337 378 C338 375 342 373 346 373 C348 373 350 373 352 374 L394 397 C399 399 401 404 401 409 C401 410 401 411 401 412 L351 521 L478 517 L478 517 C484 517 490 523 491 529 L498 574 Z " />
<glyph glyph-name="plus" unicode="&#x2b;" horiz-adv-x="550" d="M420 292 C420 293 420 294 420 294 C420 299 416 304 411 304 L298 304 L316 416 C316 417 316 417 316 418 C316 423 312 427 306 427 L261 427 C255 427 249 422 248 416 L231 304 L118 304 C112 304 106 298 105 292 L98 247 L98 246 C98 241 102 236 107 236 L220 236 L202 124 C202 123 202 123 202 122 C202 117 206 112 212 112 L257 112 C263 112 269 118 270 124 L287 236 L400 236 C406 236 412 242 413 247 L420 292 Z " />
<glyph glyph-name="comma" unicode="&#x2c;" horiz-adv-x="550" d="M303 124 L303 125 C303 131 299 135 294 135 L181 135 C175 135 169 130 168 124 L150 11 L150 10 C150 4 155 0 160 0 L216 0 L214 -11 C209 -42 180 -67 149 -67 C143 -67 137 -73 136 -79 L129 -124 L129 -125 C129 -131 133 -135 139 -135 C207 -135 271 -80 282 -11 L303 124 Z " />
<glyph glyph-name="hyphen" unicode="&#x2d;" horiz-adv-x="550" d="M420 292 C420 293 420 294 420 294 C420 299 416 304 411 304 L118 304 C112 304 106 298 105 292 L98 247 L98 246 C98 241 102 236 107 236 L400 236 C406 236 412 242 413 247 L420 292 Z " />
<glyph glyph-name="period" unicode="&#x2e;" horiz-adv-x="550" d="M303 124 L303 125 C303 131 299 135 294 135 L181 135 C175 135 169 130 168 124 L150 11 L150 10 C150 4 155 0 160 0 L272 0 C278 0 285 5 285 11 L303 124 Z " />
<glyph glyph-name="slash" unicode="&#x2f;" horiz-adv-x="550" d="M512 727 C514 730 514 732 514 734 C514 739 511 742 504 742 L456 742 C453 742 446 738 444 735 L38 15 C36 13 36 10 36 8 C36 3 39 0 46 0 L94 0 C97 0 104 4 106 7 L512 727 Z " />
<glyph glyph-name="zero" unicode="0" horiz-adv-x="550" d="M421 585 L354 157 C345 102 292 56 236 56 L214 56 C163 56 127 93 127 142 C127 147 128 152 129 157 L196 585 C205 641 258 686 314 686 L336 686 C387 686 423 649 423 601 C423 596 422 590 421 585 L421 585 Z M489 585 C490 594 491 603 491 612 C491 692 431 754 347 754 L324 754 C231 754 144 678 129 585 L61 157 C60 148 59 140 59 131 C59 50 119 -11 203 -11 L226 -11 C319 -11 406 64 421 157 L489 585 Z " />
<glyph glyph-name="one" unicode="1" horiz-adv-x="550" d="M439 56 C439 57 439 57 439 58 C439 63 435 67 429 67 L283 67 L388 731 C388 732 388 732 388 733 C388 738 384 742 379 742 L323 742 C322 742 315 740 314 739 L146 573 C144 571 143 567 143 564 C143 562 143 559 145 557 L175 528 C177 527 179 526 182 526 C185 526 188 527 191 529 L307 644 L216 67 L47 67 C41 67 35 62 34 56 L27 11 L27 10 C27 4 31 0 36 0 L419 0 C425 0 431 5 432 11 L439 56 Z " />
<glyph glyph-name="two" unicode="2" horiz-adv-x="550" d="M489 585 C490 594 491 603 491 612 C491 692 431 754 347 754 L324 754 C231 754 144 678 129 585 L124 551 C123 551 123 550 123 550 C123 544 128 540 133 540 L178 540 C184 540 190 545 191 551 L196 585 C205 641 258 686 314 686 L336 686 C387 686 423 649 423 601 C423 596 422 590 421 585 L416 551 C411 523 392 475 258 387 C110 291 57 202 34 56 L27 11 L27 10 C27 4 31 0 36 0 L396 0 C402 0 408 5 409 11 L416 56 C416 57 416 57 416 58 C416 63 412 67 407 67 L103 67 C124 185 165 252 289 333 C430 425 474 490 484 551 L489 585 Z " />
<glyph glyph-name="three" unicode="3" horiz-adv-x="550" d="M512 731 C512 732 512 732 512 733 C512 738 508 742 503 742 L188 742 C182 742 175 737 175 731 L167 686 L167 685 C167 679 171 675 177 675 L420 675 C398 653 227 476 227 476 C226 476 223 470 223 469 L215 416 L214 415 C214 409 219 405 224 405 L303 405 C353 405 389 368 389 320 C389 315 389 309 388 304 L365 157 C356 102 304 56 248 56 L203 56 C152 56 116 93 116 142 C116 147 117 152 117 157 L123 191 C123 192 123 192 123 193 C123 198 119 202 113 202 L68 202 C62 202 56 197 55 191 L50 157 C48 148 48 140 48 131 C48 50 108 -11 192 -11 L237 -11 C330 -11 418 64 432 157 L456 304 C457 313 458 322 458 330 C458 411 398 472 314 472 L310 472 L500 671 C501 672 504 678 504 678 L512 731 Z " />
<glyph glyph-name="four" unicode="4" horiz-adv-x="550" d="M456 726 C458 729 459 732 459 734 C459 739 456 742 449 742 L399 742 C396 742 389 739 388 736 L50 224 L48 219 L37 146 L37 145 C37 139 41 135 46 135 L305 135 L285 11 L285 10 C285 4 290 0 295 0 L340 0 C346 0 352 5 353 11 L373 135 L429 135 C435 135 441 140 442 146 L449 191 C449 192 449 192 449 193 C449 198 445 202 440 202 L383 202 L410 371 C410 372 410 372 410 373 C410 378 406 382 401 382 L356 382 C350 382 343 377 342 371 L316 202 L113 202 L114 206 L456 726 Z " />
<glyph glyph-name="five" unicode="5" horiz-adv-x="550" d="M501 731 C501 732 501 732 501 733 C501 738 497 742 491 742 L189 742 C183 742 177 737 176 732 L96 349 C96 349 96 348 96 347 C96 342 100 338 105 338 L147 338 C170 338 182 427 273 427 L295 427 C346 427 382 391 382 342 C382 337 381 332 380 326 L354 157 C345 102 292 56 236 56 L214 56 C163 56 127 93 127 142 C127 147 128 152 129 157 L134 191 C134 192 134 192 134 193 C134 198 130 202 125 202 L80 202 C74 202 67 197 66 191 L61 157 C60 148 59 140 59 131 C59 50 119 -11 203 -11 L226 -11 C319 -11 406 64 421 157 L448 326 C449 335 450 344 450 353 C450 433 390 495 306 495 L283 495 C250 495 217 485 188 468 L231 675 L481 675 C487 675 493 680 494 686 L501 731 Z " />
<glyph glyph-name="six" unicode="6" horiz-adv-x="550" d="M380 326 L354 157 C345 102 292 56 236 56 L214 56 C163 56 127 93 127 142 C127 147 128 152 129 157 L155 326 C164 382 217 427 273 427 L295 427 C346 427 382 391 382 342 C382 337 381 332 380 326 L380 326 Z M489 585 C490 594 491 603 491 612 C491 692 431 754 347 754 L324 754 C231 754 144 678 129 585 L61 157 C60 148 59 140 59 131 C59 50 119 -11 203 -11 L226 -11 C319 -11 406 64 421 157 L448 326 C449 335 450 344 450 353 C450 433 390 495 306 495 L283 495 C245 495 208 482 177 461 L196 585 C205 641 258 686 314 686 L336 686 C387 686 423 649 423 601 C423 596 422 590 421 585 L420 574 C419 573 419 573 419 572 C419 567 424 562 429 562 L474 562 C480 562 486 568 487 574 L489 585 Z " />
<glyph glyph-name="seven" unicode="7" horiz-adv-x="550" d="M523 731 C523 732 523 732 523 733 C523 738 519 742 514 742 L154 742 C148 742 142 737 141 731 L134 686 L134 685 C134 679 138 675 143 675 L447 675 C432 584 357 504 300 430 C227 333 142 210 86 13 C85 11 85 10 85 9 C85 4 89 0 95 0 L140 0 C145 0 152 5 153 10 C206 191 283 304 353 394 C420 482 497 567 514 675 L523 731 Z " />
<glyph glyph-name="eight" unicode="8" horiz-adv-x="550" d="M377 236 L365 157 C356 102 304 56 248 56 L203 56 C152 56 116 93 116 142 C116 147 117 152 117 157 L130 236 C139 292 191 337 247 337 L292 337 C343 337 379 301 379 252 C379 247 378 242 377 236 L377 236 Z M421 585 L409 506 C400 450 348 405 292 405 L269 405 C219 405 183 442 183 490 C183 495 183 501 184 506 L196 585 C205 641 258 686 314 686 L336 686 C387 686 423 649 423 601 C423 596 422 590 421 585 L421 585 Z M489 585 C490 594 491 603 491 612 C491 692 431 754 347 754 L324 754 C231 754 144 678 129 585 L116 506 C115 497 114 488 114 480 C114 438 130 401 158 375 C109 345 72 294 62 236 L50 157 C48 148 48 140 48 131 C48 50 108 -11 192 -11 L237 -11 C330 -11 418 64 432 157 L445 236 C446 245 447 254 447 263 C447 310 427 350 394 375 C436 406 468 453 476 506 L489 585 Z " />
<glyph glyph-name="nine" unicode="9" horiz-adv-x="550" d="M421 585 L395 416 C386 360 333 315 277 315 L255 315 C204 315 168 352 168 400 C168 405 169 411 170 416 L196 585 C205 641 258 686 314 686 L336 686 C387 686 423 649 423 601 C423 596 422 590 421 585 L421 585 Z M489 585 C490 594 491 603 491 612 C491 692 431 754 347 754 L324 754 C231 754 144 678 129 585 L102 416 C101 407 100 398 100 390 C100 309 160 247 244 247 L267 247 C305 247 342 260 373 281 L354 157 C345 102 292 56 236 56 L225 56 C175 56 139 93 139 142 C139 147 139 152 140 157 L142 169 L142 170 C142 176 138 180 132 180 L87 180 C81 180 75 175 74 169 L72 157 C71 148 70 140 70 131 C70 50 130 -11 214 -11 L226 -11 C319 -11 406 64 421 157 L489 585 Z " />
<glyph glyph-name="colon" unicode="&#x3a;" horiz-adv-x="550" d="M303 124 L303 125 C303 131 299 135 294 135 L181 135 C175 135 169 130 168 124 L150 11 L150 10 C150 4 155 0 160 0 L272 0 C278 0 285 5 285 11 L303 124 Z M360 484 L360 485 C360 491 356 495 351 495 L238 495 C232 495 226 490 225 484 L208 371 C207 371 207 370 207 370 C207 364 212 360 217 360 L329 360 C335 360 342 365 342 371 L360 484 Z " />
<glyph glyph-name="semicolon" unicode="&#x3b;" horiz-adv-x="550" d="M303 124 L303 125 C303 131 299 135 294 135 L181 135 C175 135 169 130 168 124 L150 11 L150 10 C150 4 155 0 160 0 L216 0 L214 -11 C209 -42 180 -67 149 -67 C143 -67 137 -73 136 -79 L129 -124 L129 -125 C129 -131 133 -135 139 -135 C207 -135 271 -80 282 -11 L303 124 Z M360 484 L360 485 C360 491 356 495 351 495 L238 495 C232 495 226 490 225 484 L208 371 C207 371 207 370 207 370 C207 364 212 360 217 360 L329 360 C335 360 342 365 342 371 L360 484 Z " />
<glyph glyph-name="less" unicode="&#x3c;" horiz-adv-x="550" d="M439 453 C443 456 446 461 446 464 C446 469 442 472 434 472 L366 472 C365 472 359 470 358 470 L120 289 C118 288 115 282 114 280 L108 237 L108 237 C108 235 109 230 110 229 L291 48 C292 47 297 45 298 45 L367 45 C376 45 381 50 381 56 C381 59 380 62 377 65 L184 259 L439 453 Z " />
<glyph glyph-name="equal" unicode="&#x3d;" horiz-adv-x="550" d="M409 225 C409 226 409 226 409 227 C409 232 405 236 400 236 L107 236 C101 236 95 231 94 225 L87 180 C87 179 87 179 87 178 C87 173 91 169 97 169 L389 169 C395 169 401 174 402 180 L409 225 Z M431 360 C431 361 431 361 431 362 C431 367 427 371 421 371 L129 371 C123 371 117 366 116 360 L109 315 C109 314 108 314 108 313 C108 308 113 304 118 304 L411 304 C417 304 423 309 424 315 L431 360 Z " />
<glyph glyph-name="greater" unicode="&#x3e;" horiz-adv-x="550" d="M407 280 C407 280 407 280 407 281 C407 282 405 288 404 289 L223 470 L217 472 L148 472 C139 472 133 467 133 461 C133 458 134 455 137 453 L330 259 L76 65 C71 61 69 57 69 53 C69 49 72 45 80 45 L149 45 C150 45 156 47 157 48 L395 229 C396 230 400 236 400 237 L407 280 Z " />
<glyph glyph-name="question" unicode="&#x3f;" horiz-adv-x="550" d="M281 124 L281 125 C281 131 277 135 271 135 L159 135 C153 135 147 130 146 124 L128 11 L128 10 C128 4 132 0 137 0 L250 0 C256 0 262 5 263 11 L281 124 Z M489 585 C490 594 491 603 491 612 C491 692 431 754 347 754 L324 754 C231 754 144 678 129 585 L124 551 C123 551 123 550 123 550 C123 544 128 540 133 540 L178 540 C184 540 190 545 191 551 L196 585 C205 641 258 686 314 686 L336 686 C387 686 423 649 423 601 C423 596 422 590 421 585 L418 562 C412 528 399 482 308 421 C221 363 209 308 199 247 L197 236 L197 235 C197 229 201 225 207 225 L252 225 C258 225 264 230 265 236 L267 247 C275 299 281 327 340 367 C450 441 476 507 485 562 L489 585 Z " />
<glyph glyph-name="at" unicode="&#x40;" horiz-adv-x="550" d="M279 394 L236 124 C230 86 195 56 158 56 C124 56 100 81 100 113 C100 117 100 120 101 124 L144 394 C149 431 184 461 222 461 C255 461 279 437 279 404 C279 401 279 397 279 394 L279 394 Z M511 585 C513 594 513 603 513 612 C513 692 453 754 369 754 L313 754 C220 754 132 678 118 585 L116 574 C116 573 116 573 116 572 C116 567 120 562 125 562 L170 562 C176 562 182 568 183 574 L185 585 C194 641 246 686 302 686 L359 686 C409 686 445 649 445 601 C445 596 445 590 444 585 L365 90 C363 71 345 56 326 56 C310 56 298 69 298 85 C298 86 298 88 298 90 L364 506 C364 507 364 507 364 508 C364 513 360 517 354 517 L309 517 C305 517 300 514 298 510 C280 522 257 529 232 529 C158 529 88 468 76 394 L33 124 C32 117 32 109 32 102 C32 38 80 -11 147 -11 C182 -11 217 2 244 25 C259 3 285 -11 316 -11 C372 -11 424 34 433 90 L511 585 Z " />
<glyph glyph-name="A" unicode="A" horiz-adv-x="550" d="M369 315 L164 315 L315 675 L331 675 L369 315 Z M441 287 L394 734 C394 738 389 742 385 742 L283 742 C279 742 272 738 270 734 L82 287 L81 284 L38 11 L38 10 C38 4 42 0 47 0 L92 0 C98 0 105 5 105 11 L143 247 L368 247 L330 11 L330 10 C330 4 335 0 340 0 L385 0 C391 0 397 5 398 11 L441 284 L441 287 Z " />
<glyph glyph-name="B" unicode="B" horiz-adv-x="550" d="M386 236 L376 169 C367 113 314 67 258 67 L123 67 L166 337 L301 337 C352 337 388 301 388 252 C388 247 387 242 386 236 L386 236 Z M429 574 L418 506 C409 450 357 405 301 405 L177 405 L220 675 L343 675 C394 675 430 638 430 590 C430 585 429 579 429 574 L429 574 Z M496 574 C498 583 498 592 498 600 C498 681 438 742 354 742 L174 742 C168 742 162 737 161 731 L47 11 L47 10 C47 4 51 0 56 0 L248 0 C341 0 428 76 443 169 L454 236 C455 245 456 254 456 263 C456 310 436 350 403 375 C445 406 477 453 485 506 L496 574 Z " />
<glyph glyph-name="C" unicode="C" horiz-adv-x="550" d="M500 585 C502 594 502 603 502 612 C502 692 442 754 358 754 L324 754 C231 754 144 678 129 585 L61 157 C60 148 59 140 59 131 C59 50 119 -11 203 -11 L237 -11 C330 -11 418 64 432 157 L438 191 C438 192 438 192 438 193 C438 198 434 202 428 202 L383 202 C377 202 371 197 370 191 L365 157 C356 102 304 56 248 56 L214 56 C163 56 127 93 127 142 C127 147 128 152 129 157 L196 585 C205 641 258 686 314 686 L347 686 C398 686 434 649 434 601 C434 596 433 590 433 585 L429 562 L429 561 C429 556 433 551 439 551 L484 551 C489 551 496 557 497 562 L500 585 Z " />
<glyph glyph-name="D" unicode="D" horiz-adv-x="550" d="M429 574 L364 169 C356 113 303 67 247 67 L123 67 L220 675 L343 675 C394 675 430 638 430 590 C430 585 429 579 429 574 L429 574 Z M496 574 C498 583 498 592 498 600 C498 681 438 742 354 742 L174 742 C168 742 162 737 161 731 L47 11 L47 10 C47 4 51 0 56 0 L236 0 C330 0 417 76 432 169 L496 574 Z " />
<glyph glyph-name="E" unicode="E" horiz-adv-x="550" d="M523 731 C523 732 523 732 523 733 C523 738 519 742 514 742 L176 742 C170 742 164 737 163 731 L49 11 L49 10 C49 4 53 0 59 0 L396 0 C402 0 408 5 409 11 L416 56 C416 57 416 57 416 58 C416 63 412 67 407 67 L126 67 L168 337 L427 337 C433 337 439 343 440 349 L447 394 L447 395 C447 401 443 405 438 405 L179 405 L222 675 L503 675 C509 675 515 680 516 686 L523 731 Z " />
<glyph glyph-name="F" unicode="F" horiz-adv-x="550" d="M535 731 C535 732 535 732 535 733 C535 738 530 742 525 742 L188 742 C182 742 175 737 175 731 L60 11 L60 10 C60 4 65 0 70 0 L115 0 C121 0 127 5 128 11 L180 337 L438 337 C444 337 450 343 451 349 L459 394 L459 395 C459 401 455 405 449 405 L190 405 L233 675 L514 675 C520 675 526 680 527 686 L535 731 Z " />
<glyph glyph-name="G" unicode="G" horiz-adv-x="550" d="M494 585 C496 594 497 602 497 611 C497 692 437 753 352 753 L319 753 C225 753 138 678 123 585 L56 157 C54 148 53 140 53 131 C53 50 113 -11 198 -11 L231 -11 C324 -11 412 64 427 157 L464 394 L464 395 C464 401 460 405 455 405 L286 405 C280 405 274 400 273 394 L266 349 C266 348 266 348 266 347 C266 342 270 337 275 337 L388 337 L359 157 C350 102 298 56 242 56 L208 56 C158 56 122 93 122 142 C122 147 122 152 123 157 L191 585 C200 640 252 686 308 686 L342 686 C392 686 428 649 428 601 C428 595 428 590 427 585 L423 562 C423 562 423 561 423 560 C423 555 427 551 433 551 L478 551 C484 551 490 556 491 562 L494 585 Z " />
<glyph glyph-name="H" unicode="H" horiz-adv-x="550" d="M512 731 C512 732 512 732 512 733 C512 738 508 742 503 742 L458 742 C452 742 445 737 445 731 L393 405 L168 405 L220 731 C220 732 220 732 220 733 C220 738 215 742 210 742 L165 742 C159 742 153 737 152 731 L38 11 L38 10 C38 4 42 0 47 0 L92 0 C98 0 105 5 105 11 L157 337 L382 337 L330 11 L330 10 C330 4 335 0 340 0 L385 0 C391 0 397 5 398 11 L512 731 Z " />
<glyph glyph-name="I" unicode="I" horiz-adv-x="550" d="M512 731 C512 732 512 732 512 733 C512 738 508 742 503 742 L165 742 C159 742 153 737 152 731 L145 686 L145 685 C145 679 149 675 154 675 L289 675 L193 67 L47 67 C41 67 35 62 34 56 L27 11 L27 10 C27 4 31 0 36 0 L396 0 C402 0 408 5 409 11 L416 56 C416 57 416 57 416 58 C416 63 412 67 407 67 L261 67 L357 675 L492 675 C498 675 504 680 505 686 L512 731 Z " />
<glyph glyph-name="J" unicode="J" horiz-adv-x="550" d="M501 731 C501 732 501 732 501 733 C501 738 497 742 491 742 L199 742 C193 742 187 737 186 731 L179 686 L179 685 C179 679 183 675 188 675 L424 675 L342 157 C334 102 281 56 225 56 L203 56 C152 56 116 93 116 142 C116 147 117 152 117 157 L128 225 C128 226 128 226 128 227 C128 232 124 236 119 236 L74 236 C68 236 62 231 61 225 L50 157 C48 148 48 140 48 131 C48 50 108 -11 192 -11 L214 -11 C308 -11 395 64 410 157 L501 731 Z " />
<glyph glyph-name="K" unicode="K" horiz-adv-x="550" d="M543 725 C546 728 547 732 547 734 C547 739 544 742 537 742 L481 742 C479 742 473 739 471 738 L165 387 L220 731 C220 732 220 732 220 733 C220 738 215 742 210 742 L165 742 C159 742 153 737 152 731 L38 11 L38 10 C38 4 42 0 47 0 L92 0 C98 0 105 5 105 11 L147 270 L202 334 L378 5 C379 3 385 0 387 0 L442 0 C450 0 456 5 456 11 C456 13 455 15 454 18 L253 392 L543 725 Z " />
<glyph glyph-name="L" unicode="L" horiz-adv-x="550" d="M428 56 C428 57 428 57 428 58 C428 63 424 67 418 67 L159 67 L265 731 C265 732 265 732 265 733 C265 738 260 742 255 742 L210 742 C204 742 198 737 197 731 L83 11 L83 10 C83 4 87 0 92 0 L407 0 C413 0 420 5 420 11 L428 56 Z " />
<glyph glyph-name="M" unicode="M" horiz-adv-x="550" d="M558 731 C558 732 558 732 558 733 C558 738 553 742 548 742 L454 742 C451 742 444 738 443 735 L295 439 C285 420 277 384 277 384 C277 384 278 399 278 415 C278 424 278 432 277 439 L223 735 C222 738 216 742 213 742 L120 742 C114 742 107 737 107 731 L-8 11 L-8 10 C-8 4 -3 0 2 0 L47 0 C53 0 59 5 60 11 L149 574 C153 600 156 656 156 656 L176 656 C176 656 176 651 176 643 C176 624 177 592 180 574 L230 322 C230 319 236 315 239 315 L293 315 C296 315 303 319 305 322 L434 574 C447 600 464 656 464 656 L484 656 C484 656 469 600 465 574 L376 11 L376 10 C376 4 380 0 385 0 L430 0 C436 0 443 5 443 11 L558 731 Z " />
<glyph glyph-name="N" unicode="N" horiz-adv-x="550" d="M528 731 C528 732 528 732 528 733 C528 738 524 742 518 742 L473 742 C467 742 461 737 460 731 L371 169 C368 146 365 86 365 86 L345 86 C345 86 345 98 345 114 C345 132 345 156 343 169 L255 735 C255 738 249 742 246 742 L149 742 C143 742 137 737 136 731 L22 11 L22 10 C22 4 26 0 32 0 L77 0 C83 0 89 5 90 11 L179 574 C182 596 185 656 185 656 L205 656 C205 656 205 644 205 629 C205 610 205 586 207 574 L295 7 C295 4 301 0 304 0 L401 0 C407 0 413 5 414 11 L528 731 Z " />
<glyph glyph-name="O" unicode="O" horiz-adv-x="550" d="M427 585 L359 157 C350 102 298 56 242 56 L208 56 C158 56 122 93 122 142 C122 147 122 152 123 157 L191 585 C200 641 252 686 308 686 L342 686 C392 686 428 649 428 601 C428 596 428 590 427 585 L427 585 Z M494 585 C496 594 497 603 497 612 C497 692 437 754 352 754 L319 754 C226 754 138 678 123 585 L56 157 C54 148 53 140 53 131 C53 50 113 -11 198 -11 L231 -11 C324 -11 412 64 427 157 L494 585 Z " />
<glyph glyph-name="P" unicode="P" horiz-adv-x="550" d="M429 574 L404 416 C395 360 342 315 286 315 L163 315 L220 675 L343 675 C394 675 430 638 430 590 C430 585 429 579 429 574 L429 574 Z M496 574 C498 583 498 592 498 600 C498 681 438 742 354 742 L174 742 C168 742 162 737 161 731 L47 11 L47 10 C47 4 51 0 56 0 L101 0 C107 0 114 5 114 11 L152 247 L276 247 C369 247 456 323 471 416 L496 574 Z " />
<glyph glyph-name="Q" unicode="Q" horiz-adv-x="550" d="M429 585 L361 157 C358 142 352 127 344 114 L282 187 C281 189 278 190 275 190 C272 190 269 189 267 187 L230 155 C227 153 225 149 225 145 C225 143 226 141 227 139 L289 66 C275 60 259 56 244 56 L210 56 C159 56 123 93 123 142 C123 147 124 152 125 157 L192 585 C201 641 254 686 310 686 L343 686 C394 686 430 649 430 601 C430 596 429 590 429 585 L429 585 Z M496 585 C497 594 498 603 498 612 C498 692 438 754 354 754 L320 754 C227 754 140 678 125 585 L57 157 C56 148 55 140 55 131 C55 50 115 -11 199 -11 L233 -11 C267 -11 301 -1 330 17 L371 -31 C372 -33 375 -34 378 -34 C381 -34 384 -33 386 -31 L423 1 C426 3 428 7 428 11 C428 13 427 15 426 17 L386 64 C408 91 423 123 428 157 L496 585 Z " />
<glyph glyph-name="R" unicode="R" horiz-adv-x="550" d="M429 574 L404 416 C395 360 342 315 286 315 L163 315 L220 675 L343 675 C394 675 430 638 430 590 C430 585 429 579 429 574 L429 574 Z M496 574 C498 583 498 592 498 600 C498 681 438 742 354 742 L174 742 C168 742 162 737 161 731 L47 11 L47 10 C47 4 51 0 56 0 L101 0 C107 0 114 5 114 11 L152 247 L276 247 L339 7 C340 4 346 0 349 0 L398 0 C406 0 411 5 411 12 C411 13 411 14 410 16 L345 262 C409 288 460 347 471 416 L496 574 Z " />
<glyph glyph-name="S" unicode="S" horiz-adv-x="550" d="M489 585 C490 594 491 603 491 612 C491 692 431 754 347 754 L324 754 C231 754 144 678 129 585 L124 551 C122 540 121 529 121 519 C121 345 372 355 372 213 C372 206 371 199 370 191 L365 157 C356 102 304 56 248 56 L203 56 C152 56 116 93 116 142 C116 147 117 152 117 157 L121 180 C121 181 121 181 121 182 C121 187 117 191 111 191 L66 191 C61 191 54 186 53 180 L50 157 C48 148 48 140 48 131 C48 50 108 -11 192 -11 L237 -11 C330 -11 418 64 432 157 L438 191 C440 204 441 215 441 226 C441 406 189 398 189 532 C189 538 190 545 191 551 L196 585 C205 641 258 686 314 686 L336 686 C387 686 423 649 423 601 C423 596 422 590 421 585 L418 562 L418 561 C418 556 422 551 427 551 L472 551 C478 551 484 557 485 562 L489 585 Z " />
<glyph glyph-name="T" unicode="T" horiz-adv-x="550" d="M535 731 C535 732 535 732 535 733 C535 738 530 742 525 742 L143 742 C137 742 130 737 130 731 L122 686 L122 685 C122 679 126 675 132 675 L289 675 L184 11 L184 10 C184 4 188 0 194 0 L239 0 C245 0 251 5 252 11 L357 675 L514 675 C520 675 526 680 527 686 L535 731 Z " />
<glyph glyph-name="U" unicode="U" horiz-adv-x="550" d="M512 731 C512 732 512 732 512 733 C512 738 508 742 503 742 L458 742 C452 742 445 737 445 731 L354 157 C345 102 292 56 236 56 L214 56 C163 56 127 93 127 142 C127 147 128 152 129 157 L220 731 C220 732 220 732 220 733 C220 738 215 742 210 742 L165 742 C159 742 153 737 152 731 L61 157 C60 148 59 140 59 131 C59 50 119 -11 203 -11 L226 -11 C319 -11 406 64 421 157 L512 731 Z " />
<glyph glyph-name="V" unicode="V" horiz-adv-x="550" d="M529 729 C530 731 530 732 530 734 C530 739 526 742 520 742 L474 742 C470 742 463 738 462 734 L234 116 L203 734 C203 738 198 742 193 742 L147 742 C140 742 134 737 134 730 C134 729 134 729 134 729 L177 9 C177 5 182 0 186 0 L245 0 C249 0 256 5 258 9 L529 729 Z " />
<glyph glyph-name="W" unicode="W" horiz-adv-x="550" d="M575 731 C575 732 575 732 575 733 C575 738 571 742 566 742 L521 742 C515 742 509 737 508 732 L444 396 L388 180 C379 146 367 69 367 69 L346 69 C346 69 349 123 349 161 C349 168 349 175 349 180 L337 419 C337 423 332 427 327 427 L240 427 C235 427 229 423 227 419 L140 180 C127 146 108 69 108 69 L87 69 C87 69 99 146 101 180 L113 396 L157 732 C157 732 157 732 157 733 C157 738 152 742 147 742 L102 742 C96 742 90 737 89 731 L45 391 L27 10 L27 10 C27 5 32 0 37 0 L127 0 C131 0 138 5 139 9 L242 281 C251 304 264 359 264 359 L283 359 C283 359 279 317 279 291 C279 288 279 284 279 281 L295 9 C295 5 300 0 305 0 L395 0 C400 0 406 5 407 10 L510 391 L575 731 Z " />
<glyph glyph-name="X" unicode="X" horiz-adv-x="550" d="M524 727 C526 729 527 732 527 734 C527 739 523 742 517 742 L467 742 C464 742 458 739 456 736 L290 465 L210 736 C209 739 203 742 200 742 L151 742 C143 742 138 738 138 731 C138 729 138 728 138 727 L240 384 L14 16 C13 13 12 10 12 8 C12 3 16 0 22 0 L72 0 C74 0 81 4 83 7 L264 302 L352 7 C352 4 358 0 361 0 L410 0 C418 0 424 5 424 12 C424 13 423 14 423 16 L314 384 L524 727 Z " />
<glyph glyph-name="Y" unicode="Y" horiz-adv-x="550" d="M523 727 C524 730 525 732 525 734 C525 739 521 742 515 742 L466 742 C463 742 456 738 455 735 L282 415 L211 735 C210 738 205 742 201 742 L153 742 C145 742 140 737 140 730 C140 729 140 728 140 727 L234 325 L184 11 L184 10 C184 4 188 0 194 0 L239 0 C245 0 251 5 252 11 L301 325 L523 727 Z " />
<glyph glyph-name="Z" unicode="Z" horiz-adv-x="550" d="M512 731 C512 732 512 732 512 733 C512 738 508 742 503 742 L176 742 C170 742 164 737 163 731 L156 686 L156 685 C156 679 160 675 166 675 L427 675 L56 79 C48 67 47 65 44 51 L38 11 L38 10 C38 4 42 0 47 0 L396 0 C402 0 408 5 409 11 L416 56 C416 57 416 57 416 58 C416 63 412 67 407 67 L123 67 L495 664 C503 676 505 686 505 686 L512 731 Z " />
<glyph glyph-name="bracketleft" unicode="&#x5b;" horiz-adv-x="550" d="M433 731 C433 732 433 732 433 733 C433 738 429 742 424 742 L244 742 C238 742 232 737 231 731 L81 -214 L81 -215 C81 -221 85 -225 91 -225 L271 -225 C277 -225 283 -220 284 -214 L291 -169 C291 -168 291 -168 291 -167 C291 -162 287 -157 281 -157 L158 -157 L289 675 L413 675 C419 675 425 680 426 686 L433 731 Z " />
<glyph glyph-name="backslash" unicode="&#x5c;" horiz-adv-x="550" d="M400 15 L221 735 C220 738 215 742 212 742 L163 742 C155 742 150 737 150 731 C150 729 150 728 150 727 L329 7 C330 4 335 0 338 0 L387 0 C395 0 400 5 400 12 C400 13 400 14 400 15 L400 15 Z " />
<glyph glyph-name="bracketright" unicode="&#x5d;" horiz-adv-x="550" d="M433 731 C433 732 433 732 433 733 C433 738 429 742 424 742 L244 742 C238 742 232 737 231 731 L224 686 L224 685 C224 679 228 675 233 675 L357 675 L225 -158 L101 -158 C95 -158 89 -163 88 -169 L81 -214 L81 -215 C81 -221 85 -225 91 -225 L271 -225 C277 -225 283 -220 284 -214 L433 731 Z " />
<glyph glyph-name="asciicircum" unicode="&#x5e;" horiz-adv-x="550" d="M467 353 L381 735 C380 738 375 742 372 742 L296 742 C293 742 286 738 284 735 L77 353 C76 350 75 348 75 346 C75 341 79 337 85 337 L134 337 C137 337 144 342 145 345 L323 673 L396 345 C397 342 402 337 406 337 L454 337 C462 337 467 343 467 350 C467 351 467 352 467 353 L467 353 Z " />
<glyph glyph-name="underscore" unicode="&#x5f;" horiz-adv-x="550" d="M405 56 C405 57 405 57 405 58 C405 63 401 67 396 67 L58 67 C52 67 46 62 45 56 L38 11 L38 10 C38 4 42 0 47 0 L385 0 C391 0 397 5 398 11 L405 56 Z " />
<glyph glyph-name="grave" unicode="&#x60;" horiz-adv-x="550" d="M354 603 L282 716 C281 717 276 720 274 720 L206 720 C198 720 192 715 192 709 C192 706 193 703 195 701 L290 588 C291 587 296 585 298 585 L343 585 C351 585 357 590 357 596 C357 598 356 601 354 603 L354 603 Z " />
<glyph glyph-name="a" unicode="a" horiz-adv-x="550" d="M374 360 L342 157 C334 102 281 56 225 56 L203 56 C152 56 116 93 116 142 C116 147 117 152 117 157 L149 360 C158 416 211 461 267 461 L289 461 C340 461 376 424 376 376 C376 371 375 365 374 360 L374 360 Z M465 506 C465 507 465 507 465 508 C465 513 461 517 456 517 L411 517 C405 517 399 512 398 506 L396 495 C371 516 338 529 300 529 L277 529 C184 529 97 453 82 360 L50 157 C48 148 48 140 48 131 C48 50 108 -11 192 -11 L214 -11 C261 -11 305 7 340 37 C353 15 377 0 407 0 L430 0 C436 0 442 5 443 11 L450 56 C450 57 450 57 450 58 C450 63 446 67 441 67 L418 67 C407 67 399 76 399 86 C399 88 399 89 399 90 L465 506 Z " />
<glyph glyph-name="b" unicode="b" horiz-adv-x="550" d="M395 360 L363 157 C354 102 301 56 245 56 L223 56 C172 56 136 93 136 142 C136 147 137 152 138 157 L170 360 C179 416 231 461 287 461 L310 461 C360 461 396 424 396 376 C396 371 396 365 395 360 L395 360 Z M462 360 C464 369 464 378 464 387 C464 467 404 529 320 529 L298 529 C260 529 223 516 191 495 L229 731 C229 732 229 732 229 733 C229 738 224 742 219 742 L174 742 C168 742 162 737 161 731 L47 11 L47 10 C47 4 51 0 56 0 L101 0 C107 0 114 5 114 11 L116 22 C141 1 174 -11 212 -11 L235 -11 C328 -11 415 64 430 157 L462 360 Z " />
<glyph glyph-name="c" unicode="c" horiz-adv-x="550" d="M453 360 C455 369 455 378 455 387 C455 467 395 529 311 529 L289 529 C196 529 108 453 93 360 L61 157 C60 148 59 140 59 131 C59 50 119 -11 203 -11 L226 -11 C319 -11 406 64 421 157 C421 158 421 159 421 159 C421 164 417 169 412 169 L367 169 C361 169 355 163 354 157 C345 102 292 56 236 56 L214 56 C163 56 127 93 127 142 C127 147 128 152 129 157 L161 360 C170 416 222 461 278 461 L301 461 C351 461 387 424 387 376 C387 371 387 365 386 360 C386 359 386 359 386 358 C386 353 390 349 395 349 L440 349 C446 349 452 354 453 360 L453 360 Z " />
<glyph glyph-name="d" unicode="d" horiz-adv-x="550" d="M377 360 L345 157 C336 102 283 56 227 56 L205 56 C154 56 118 93 118 142 C118 147 119 152 120 157 L152 360 C161 416 213 461 269 461 L292 461 C342 461 378 424 378 376 C378 371 378 365 377 360 L377 360 Z M503 731 C503 732 503 732 503 733 C503 738 499 742 494 742 L449 742 C443 742 436 737 436 731 L398 495 C373 516 340 529 302 529 L280 529 C187 529 99 453 84 360 L52 157 C51 148 50 140 50 131 C50 50 110 -11 194 -11 L217 -11 C255 -11 292 1 323 22 L321 11 L321 10 C321 4 326 0 331 0 L376 0 C382 0 388 5 389 11 L503 731 Z " />
<glyph glyph-name="e" unicode="e" horiz-adv-x="550" d="M386 360 L375 292 L150 292 L161 360 C170 416 222 461 278 461 L300 461 C351 461 387 424 387 376 C387 371 387 365 386 360 L386 360 Z M453 360 C455 369 455 378 455 387 C455 467 395 529 311 529 L289 529 C195 529 108 453 93 360 L61 157 C60 148 59 140 59 131 C59 50 119 -11 203 -11 L226 -11 C303 -11 377 42 408 113 C409 115 409 116 409 118 C409 122 407 126 403 127 L361 139 C360 139 359 139 358 139 C353 139 348 136 346 131 C327 88 283 56 236 56 L214 56 C163 56 127 93 127 142 C127 147 128 152 129 157 L139 225 L421 225 C427 225 433 230 434 236 L453 360 Z " />
<glyph glyph-name="f" unicode="f" horiz-adv-x="550" d="M556 585 C558 595 559 605 559 615 C559 691 511 754 426 754 L392 754 C295 754 222 674 208 585 L193 495 L115 495 C109 495 103 490 102 484 L94 439 C94 438 94 438 94 437 C94 432 98 427 104 427 L183 427 L126 67 L36 67 C30 67 24 62 23 56 L15 11 L15 10 C15 4 20 0 25 0 L374 0 C380 0 386 5 387 11 L394 56 C394 57 394 57 394 58 C394 63 390 67 384 67 L193 67 L250 427 L374 427 C380 427 386 433 387 439 L394 484 L394 485 C394 491 390 495 385 495 L261 495 L275 585 C285 645 329 686 381 686 L415 686 C461 686 491 654 491 606 C491 599 490 592 489 585 L482 540 C482 539 482 539 482 538 C482 533 486 529 491 529 L536 529 C542 529 548 534 549 540 L556 585 Z " />
<glyph glyph-name="g" unicode="g" horiz-adv-x="550" d="M377 360 L345 158 C336 102 283 57 227 57 L205 57 C154 57 118 94 118 142 C118 147 119 153 120 158 L152 360 C161 416 213 462 269 462 L292 462 C342 462 378 425 378 376 C378 371 378 366 377 360 L377 360 Z M467 506 C467 507 468 507 468 508 C468 513 463 517 458 517 L413 517 C407 517 401 512 400 506 L398 495 C373 517 340 529 302 529 L280 529 C187 529 99 454 84 360 L52 158 C51 149 50 140 50 131 C50 51 110 -11 194 -11 L217 -11 C255 -11 292 2 323 23 L309 -67 C300 -123 248 -168 192 -168 L169 -168 C141 -168 118 -157 103 -139 C101 -137 98 -136 95 -136 C92 -136 89 -137 87 -139 L50 -171 C47 -173 45 -177 45 -181 C45 -183 46 -185 47 -187 C73 -217 112 -236 159 -236 L181 -236 C274 -236 362 -160 377 -67 L467 506 Z " />
<glyph glyph-name="h" unicode="h" horiz-adv-x="550" d="M462 360 C464 369 464 378 464 387 C464 467 404 529 320 529 L298 529 C260 529 223 516 191 495 L229 731 C229 732 229 732 229 733 C229 738 224 742 219 742 L174 742 C168 742 162 737 161 731 L47 11 L47 10 C47 4 51 0 56 0 L101 0 C107 0 114 5 114 11 L170 360 C179 416 231 461 287 461 L310 461 C360 461 396 424 396 376 C396 371 396 365 395 360 L339 11 L339 10 C339 4 344 0 349 0 L394 0 C400 0 406 5 407 11 L462 360 Z " />
<glyph glyph-name="i" unicode="i" horiz-adv-x="550" d="M450 56 C450 57 450 57 450 58 C450 63 446 67 441 67 L294 67 L364 506 C364 507 364 507 364 508 C364 513 360 517 354 517 L152 517 C146 517 140 512 139 506 L132 461 L132 460 C132 454 136 450 141 450 L287 450 L227 67 L36 67 C30 67 24 62 23 56 L15 11 L15 10 C15 4 20 0 25 0 L430 0 C436 0 442 5 443 11 L450 56 Z M409 720 C409 721 409 721 409 722 C409 727 405 731 400 731 L310 731 C304 731 297 726 296 720 L282 630 C282 629 282 629 282 628 C282 623 286 619 292 619 L382 619 C388 619 394 624 395 630 L409 720 Z " />
<glyph glyph-name="j" unicode="j" horiz-adv-x="550" d="M420 506 C420 507 420 507 420 508 C420 513 416 517 411 517 L163 517 C157 517 151 512 150 506 L143 461 L143 460 C143 454 147 450 152 450 L344 450 L262 -67 C253 -123 200 -169 144 -169 C94 -169 58 -132 58 -83 C58 -78 58 -73 59 -67 L68 -11 L68 -10 C68 -4 64 0 59 0 L14 0 C8 0 2 -5 1 -11 L-8 -67 C-10 -77 -10 -85 -10 -94 C-10 -175 50 -236 134 -236 C227 -236 314 -161 329 -67 L420 506 Z M465 720 C465 721 465 721 465 722 C465 727 461 731 456 731 L366 731 C360 731 354 726 353 720 L338 630 C338 629 338 629 338 628 C338 623 343 619 348 619 L438 619 C444 619 450 624 451 630 L465 720 Z " />
<glyph glyph-name="k" unicode="k" horiz-adv-x="550" d="M481 498 C485 502 487 506 487 509 C487 514 484 517 476 517 L413 517 C411 517 405 515 404 514 L150 295 L220 731 C220 732 220 732 220 733 C220 738 215 742 210 742 L165 742 C159 742 153 737 152 731 L38 11 L38 10 C38 4 42 0 47 0 L92 0 C98 0 105 5 105 11 L135 200 L197 253 L357 4 C358 3 364 0 365 0 L423 0 C431 0 437 5 437 11 C437 13 436 16 434 18 L253 301 L481 498 Z " />
<glyph glyph-name="l" unicode="l" horiz-adv-x="550" d="M450 56 C450 57 450 57 450 58 C450 63 446 67 441 67 L283 67 L388 731 C388 732 388 732 388 733 C388 738 384 742 379 742 L176 742 C170 742 164 737 163 731 L156 686 L156 685 C156 679 160 675 166 675 L312 675 L216 67 L24 67 C18 67 12 62 11 56 L4 11 L4 10 C4 4 8 0 14 0 L430 0 C436 0 442 5 443 11 L450 56 Z " />
<glyph glyph-name="m" unicode="m" horiz-adv-x="550" d="M494 405 C495 412 496 418 496 425 C496 484 452 529 390 529 C354 529 320 514 294 490 C275 514 245 529 210 529 C189 529 167 523 148 514 C147 516 144 517 141 517 L96 517 C90 517 84 512 83 506 L4 11 L4 10 C4 4 8 0 14 0 L59 0 C65 0 71 5 72 11 L134 405 C139 436 168 461 199 461 C227 461 247 441 247 414 C247 411 247 408 247 405 L184 11 C184 10 184 10 184 9 C184 4 188 0 194 0 L239 0 C245 0 251 5 252 11 L314 405 C319 436 348 461 379 461 C407 461 427 440 427 414 C427 411 427 408 427 405 L364 11 L364 10 C364 4 368 0 374 0 L419 0 C425 0 431 5 432 11 L494 405 Z " />
<glyph glyph-name="n" unicode="n" horiz-adv-x="550" d="M458 360 C459 369 460 378 460 387 C460 467 400 529 316 529 L293 529 C255 529 218 516 187 495 L188 506 C188 507 189 507 189 508 C189 513 184 517 179 517 L134 517 C128 517 122 512 121 506 L42 11 L42 10 C42 4 47 0 52 0 L97 0 C103 0 109 5 110 11 L165 360 C174 416 227 461 283 461 L305 461 C355 461 391 424 391 376 C391 371 391 365 390 360 L335 11 L335 10 C335 4 339 0 344 0 L389 0 C395 0 402 5 402 11 L458 360 Z " />
<glyph glyph-name="o" unicode="o" horiz-adv-x="550" d="M386 360 L354 157 C345 102 292 56 236 56 L214 56 C163 56 127 93 127 142 C127 147 128 152 129 157 L161 360 C170 416 222 461 278 461 L301 461 C351 461 387 424 387 376 C387 371 387 365 386 360 L386 360 Z M453 360 C455 369 455 378 455 387 C455 467 395 529 311 529 L289 529 C196 529 108 453 93 360 L61 157 C60 148 59 140 59 131 C59 50 119 -11 203 -11 L226 -11 C319 -11 406 64 421 157 L453 360 Z " />
<glyph glyph-name="p" unicode="p" horiz-adv-x="550" d="M395 360 L363 157 C354 102 301 56 245 56 L223 56 C172 56 136 93 136 142 C136 147 137 152 138 157 L170 360 C179 416 231 461 287 461 L310 461 C360 461 396 424 396 376 C396 371 396 365 395 360 L395 360 Z M462 360 C464 369 464 378 464 387 C464 467 404 529 320 529 L298 529 C260 529 223 516 191 495 L193 506 C193 507 193 507 193 508 C193 513 189 517 183 517 L138 517 C132 517 126 512 125 506 L11 -214 L11 -215 C11 -221 15 -225 21 -225 L66 -225 C72 -225 78 -220 79 -214 L116 22 C141 1 174 -11 212 -11 L235 -11 C328 -11 415 64 430 157 L462 360 Z " />
<glyph glyph-name="q" unicode="q" horiz-adv-x="550" d="M377 360 L345 157 C336 102 283 56 227 56 L205 56 C154 56 118 93 118 142 C118 147 119 152 120 157 L152 360 C161 416 213 461 269 461 L292 461 C342 461 378 424 378 376 C378 371 378 365 377 360 L377 360 Z M467 506 C467 507 468 507 468 508 C468 513 463 517 458 517 L413 517 C407 517 401 512 400 506 L398 495 C373 516 340 529 302 529 L280 529 C187 529 99 453 84 360 L52 157 C51 148 50 140 50 131 C50 50 110 -11 194 -11 L217 -11 C255 -11 292 1 323 22 L286 -214 L286 -215 C286 -221 290 -225 295 -225 L340 -225 C346 -225 352 -220 353 -214 L467 506 Z " />
<glyph glyph-name="r" unicode="r" horiz-adv-x="550" d="M476 360 C477 369 478 378 478 386 C478 464 421 529 334 529 L311 529 C214 529 130 449 116 360 L69 67 L-9 67 C-15 67 -21 62 -22 56 L-30 11 L-30 10 C-30 4 -25 0 -20 0 L317 0 C323 0 330 5 330 11 L338 56 C338 57 338 57 338 58 C338 63 334 67 328 67 L137 67 L183 360 C193 420 248 461 301 461 L323 461 C370 461 410 427 410 377 C410 371 409 366 408 360 L394 270 C394 269 394 269 394 268 C394 263 398 259 403 259 L448 259 C454 259 461 264 461 270 L476 360 Z " />
<glyph glyph-name="s" unicode="s" horiz-adv-x="550" d="M455 371 C456 380 457 389 457 397 C457 479 392 529 311 529 L300 529 C211 529 122 473 107 376 C106 368 105 360 105 353 C105 207 364 249 364 155 C364 152 364 149 363 146 C355 94 307 56 248 56 L214 56 C160 56 126 87 126 132 C126 136 126 141 127 146 L130 169 C131 169 131 170 131 170 C131 176 126 180 121 180 L76 180 C70 180 64 175 63 169 L59 146 C58 137 57 128 57 120 C57 39 122 -11 203 -11 L237 -11 C326 -11 415 49 431 146 C432 154 432 162 432 169 C432 315 174 273 174 367 C174 370 174 373 174 376 C183 427 229 461 289 461 L301 461 C355 461 389 430 389 386 C389 381 388 376 387 371 L386 360 C386 359 386 359 386 358 C386 353 390 349 395 349 L440 349 C446 349 452 354 453 360 L455 371 Z " />
<glyph glyph-name="t" unicode="t" horiz-adv-x="550" d="M450 484 L450 485 C450 491 446 495 441 495 L227 495 L265 731 C265 732 265 732 265 733 C265 738 260 742 255 742 L210 742 C204 742 198 737 197 731 L160 495 L81 495 C75 495 69 490 68 484 L61 439 C61 438 61 438 61 437 C61 432 65 427 70 427 L149 427 L106 157 C105 148 104 140 104 131 C104 50 164 -11 248 -11 C341 -11 429 64 444 157 L447 180 C447 181 447 181 447 182 C447 187 443 191 438 191 L393 191 C387 191 381 186 380 180 L376 157 C367 102 315 56 259 56 C208 56 172 93 172 142 C172 147 173 152 174 157 L216 427 L430 427 C436 427 442 433 443 439 L450 484 Z " />
<glyph glyph-name="u" unicode="u" horiz-adv-x="550" d="M472 506 C472 507 472 507 472 508 C472 513 468 517 462 517 L417 517 C411 517 405 512 404 506 L349 157 C340 102 288 56 232 56 L209 56 C159 56 123 93 123 142 C123 147 123 152 124 157 L179 506 C179 507 180 507 180 508 C180 513 175 517 170 517 L125 517 C119 517 113 512 112 506 L57 157 C55 148 55 140 55 131 C55 50 115 -11 199 -11 L221 -11 C259 -11 296 1 328 22 L326 11 L326 10 C326 4 330 0 335 0 L380 0 C386 0 393 5 393 11 L472 506 Z " />
<glyph glyph-name="v" unicode="v" horiz-adv-x="550" d="M507 503 C508 505 509 507 509 509 C509 514 505 517 499 517 L451 517 C448 517 441 513 439 510 L231 94 L155 510 C154 513 149 517 145 517 L97 517 C90 517 84 512 84 505 C84 504 84 503 85 503 L180 8 C180 4 185 0 189 0 L243 0 C247 0 254 4 255 8 L507 503 Z " />
<glyph glyph-name="w" unicode="w" horiz-adv-x="550" d="M528 506 C528 506 528 507 528 508 C528 513 524 517 519 517 L474 517 C468 517 462 512 461 507 L415 285 L380 169 C366 123 357 69 357 69 L336 69 C336 69 339 104 339 142 C339 151 338 160 338 169 L329 374 C329 378 324 382 320 382 L234 382 C230 382 223 378 222 374 L148 169 C132 123 118 69 118 69 L97 69 C97 69 105 123 106 169 L108 285 L132 507 C132 507 132 507 132 508 C132 513 128 517 123 517 L78 517 C71 517 65 512 65 506 L40 278 L40 277 L41 9 C41 5 46 0 51 0 L140 0 C144 0 151 5 152 9 L235 236 C243 259 256 314 256 314 L275 314 C275 314 272 271 272 245 C272 242 272 239 272 236 L283 9 C283 5 289 0 293 0 L382 0 C386 0 393 5 394 9 L480 277 L481 278 L528 506 Z " />
<glyph glyph-name="x" unicode="x" horiz-adv-x="550" d="M489 500 C492 503 493 507 493 509 C493 514 490 517 483 517 L429 517 C427 517 420 514 419 512 L268 328 L176 512 C175 514 170 517 168 517 L114 517 C105 517 100 513 100 506 C100 504 100 502 102 500 L218 267 L15 17 C12 14 11 11 11 8 C11 3 15 0 21 0 L75 0 C77 0 84 3 85 5 L249 206 L349 5 C349 3 355 0 357 0 L411 0 C419 0 425 5 425 11 C425 13 424 15 423 17 L299 267 L489 500 Z " />
<glyph glyph-name="y" unicode="y" horiz-adv-x="550" d="M476 503 C477 505 478 507 478 509 C478 514 474 517 468 517 L423 517 C419 517 413 513 411 509 L242 124 L193 509 C192 513 187 517 183 517 L136 517 C128 517 123 512 123 505 C123 504 123 504 123 503 L193 15 C142 -99 141 -112 30 -112 L7 -112 C1 -112 -5 -118 -6 -124 L-13 -169 L-13 -170 C-13 -176 -9 -180 -4 -180 L19 -180 C104 -180 179 -172 227 -66 C275 40 476 503 476 503 L476 503 Z " />
<glyph glyph-name="z" unicode="z" horiz-adv-x="550" d="M476 506 C476 507 477 507 477 508 C477 513 472 517 467 517 L141 517 C135 517 129 512 128 506 L121 461 C120 461 120 460 120 460 C120 454 125 450 130 450 L389 450 L49 70 L46 64 L38 11 L38 10 C38 4 42 0 47 0 L396 0 C402 0 408 5 409 11 L416 56 C416 57 416 57 416 58 C416 63 412 67 407 67 L130 67 L465 447 C465 448 468 453 468 454 L476 506 Z " />
<glyph glyph-name="braceleft" unicode="&#x7b;" horiz-adv-x="550" d="M490 731 C490 732 490 732 490 733 C490 738 485 742 480 742 L458 742 C364 742 277 667 262 574 L234 394 C225 338 172 292 116 292 C110 292 104 287 103 281 L96 236 L96 235 C96 229 100 225 106 225 C156 225 192 188 192 140 C192 135 192 129 191 124 L162 -56 C161 -65 160 -74 160 -83 C160 -163 220 -225 304 -225 L327 -225 C333 -225 339 -220 340 -214 L347 -169 C347 -168 347 -168 347 -167 C347 -162 343 -157 338 -157 L315 -157 C265 -157 229 -121 229 -72 C229 -67 229 -62 230 -56 L258 124 C260 133 260 142 260 150 C260 195 242 233 212 259 C258 290 292 339 301 394 L330 574 C338 630 391 675 447 675 L469 675 C475 675 481 680 482 686 L490 731 Z " />
<glyph glyph-name="bar" unicode="&#x7c;" horiz-adv-x="550" d="M366 731 C366 732 366 732 366 733 C366 738 362 742 356 742 L311 742 C305 742 299 737 298 731 L149 -214 L148 -215 C148 -221 153 -225 158 -225 L203 -225 C209 -225 215 -220 216 -214 L366 731 Z " />
<glyph glyph-name="braceright" unicode="&#x7d;" horiz-adv-x="550" d="M418 281 C418 282 418 282 418 283 C418 288 414 292 409 292 C358 292 322 329 322 378 C322 383 323 388 324 394 L352 574 C354 583 354 592 354 600 C354 681 294 742 210 742 L188 742 C182 742 175 731 175 731 L167 686 L167 685 C167 679 171 675 177 675 L199 675 C250 675 286 638 286 590 C286 585 285 579 285 574 L256 394 C255 385 254 376 254 367 C254 323 272 284 302 259 C256 228 222 179 213 124 L185 -56 C176 -112 123 -157 68 -157 L45 -157 C39 -157 33 -163 32 -169 L25 -214 L25 -215 C25 -221 29 -225 34 -225 L57 -225 C150 -225 238 -149 252 -56 L281 124 C290 180 342 225 398 225 C404 225 410 230 411 236 L418 281 Z " />
<glyph glyph-name="asciitilde" unicode="&#x7e;" horiz-adv-x="550" d="M457 315 C457 316 457 316 457 317 C457 322 453 326 448 326 L403 326 C397 326 391 321 390 315 L386 292 C385 284 369 259 343 259 C328 259 308 268 287 294 C254 333 218 348 185 348 C124 348 72 297 64 247 L61 225 C61 224 60 224 60 223 C60 218 65 214 70 214 L115 214 C121 214 127 219 128 225 L132 247 C133 256 149 281 175 281 C190 281 209 272 231 246 C264 207 300 192 333 192 C394 192 446 243 454 292 L457 315 Z " />
<glyph glyph-name="nbspace" unicode="&#xa0;" horiz-adv-x="550" d="" />
<glyph glyph-name="exclamdown" unicode="&#xa1;" horiz-adv-x="550" d="M294 281 C295 282 295 282 295 283 C295 288 290 292 285 292 L240 292 C234 292 228 287 227 281 L149 -214 L148 -215 C148 -221 153 -225 158 -225 L203 -225 C209 -225 215 -220 216 -214 L294 281 Z M364 506 C364 507 364 507 364 508 C364 513 360 517 354 517 L242 517 C236 517 230 512 229 506 L211 394 C211 393 211 393 211 392 C211 387 215 382 221 382 L333 382 C339 382 345 388 346 394 L364 506 Z " />
<glyph glyph-name="cent" unicode="&#xa2;" horiz-adv-x="550" d="M325 458 L138 99 C131 112 127 126 127 142 C127 147 128 152 129 157 L161 360 C170 416 222 461 278 461 L301 461 C309 461 318 460 325 458 L325 458 Z M453 360 C455 369 455 378 455 387 C455 428 440 464 413 489 L442 543 C443 545 443 547 443 549 C443 553 441 556 437 558 L397 573 C396 573 395 574 394 574 C389 574 384 571 382 566 L359 522 C344 526 328 529 311 529 L289 529 C196 529 108 453 93 360 L61 157 C60 148 59 140 59 131 C59 90 75 54 101 28 L73 -26 C72 -27 71 -29 71 -31 C71 -35 73 -39 77 -40 L117 -56 C118 -56 119 -56 120 -56 C125 -56 130 -53 132 -49 L156 -4 C170 -9 186 -11 203 -11 L226 -11 C319 -11 406 64 421 157 C421 158 421 159 421 159 C421 164 417 169 412 169 L367 169 C361 169 355 163 354 157 C345 102 292 56 236 56 L214 56 C205 56 197 57 189 59 L376 418 C383 406 387 392 387 376 C387 371 387 365 386 360 C386 359 386 359 386 358 C386 353 390 349 395 349 L440 349 C446 349 452 354 453 360 L453 360 Z " />
<glyph glyph-name="sterling" unicode="&#xa3;" horiz-adv-x="550" d="M523 585 C524 594 525 603 525 612 C525 692 465 754 381 754 L358 754 C265 754 177 678 163 585 L134 405 L78 405 C72 405 66 400 65 394 L58 349 C58 348 58 348 58 347 C58 342 62 337 67 337 L123 337 L97 169 C88 113 35 67 -21 67 C-27 67 -33 62 -34 56 L-41 11 L-41 10 C-41 4 -37 0 -31 0 L419 0 C425 0 431 5 432 11 L439 56 C439 57 439 57 439 58 C439 63 435 67 429 67 L114 67 C140 96 158 131 164 169 L191 337 L382 337 C388 337 394 343 395 349 L402 394 L402 395 C402 401 398 405 393 405 L202 405 L230 585 C239 641 291 686 347 686 L370 686 C420 686 456 649 456 601 C456 596 456 590 455 585 L441 495 C441 494 441 494 441 493 C441 488 445 484 450 484 L495 484 C501 484 507 489 508 495 L523 585 Z " />
<glyph glyph-name="yen" unicode="&#xa5;" horiz-adv-x="550" d="M523 727 C524 730 525 732 525 734 C525 739 521 742 515 742 L466 742 C463 742 456 738 455 735 L282 415 L211 735 C210 738 205 742 201 742 L153 742 C145 742 140 737 140 731 C140 729 140 728 140 727 L223 371 L129 371 C123 371 117 366 116 360 L109 315 C109 314 108 314 108 313 C108 308 113 304 118 304 L231 304 L223 259 L111 259 C105 259 99 253 98 247 L91 202 L91 201 C91 196 95 191 100 191 L213 191 L184 11 L184 10 C184 4 188 0 194 0 L239 0 C245 0 251 5 252 11 L280 191 L393 191 C399 191 405 197 406 202 L413 247 C413 248 413 249 413 249 C413 254 409 259 403 259 L291 259 L298 304 L411 304 C417 304 423 309 424 315 L431 360 C431 361 431 361 431 362 C431 367 427 371 421 371 L326 371 L523 727 Z " />
<glyph glyph-name="brokenbar" unicode="&#xa6;" horiz-adv-x="550" d="M294 281 C295 282 295 282 295 283 C295 288 290 292 285 292 L240 292 C234 292 228 287 227 281 L184 11 L184 10 C184 4 188 0 194 0 L239 0 C245 0 251 5 252 11 L294 281 Z M366 731 C366 732 366 732 366 733 C366 738 362 742 356 742 L311 742 C305 742 299 737 298 731 L256 461 C255 461 255 460 255 460 C255 454 260 450 265 450 L310 450 C316 450 322 455 323 461 L366 731 Z " />
<glyph glyph-name="section" unicode="&#xa7;" horiz-adv-x="550" d="M406 202 C392 118 334 90 309 90 L303 90 C221 150 107 186 107 290 C107 298 107 306 109 315 C122 400 181 427 205 427 L211 427 C293 368 408 331 408 227 C408 219 407 211 406 202 L406 202 Z M489 585 C490 594 491 603 491 612 C491 692 431 754 347 754 L324 754 C235 754 146 693 131 596 C129 586 128 576 128 566 C128 531 139 504 156 480 C104 455 54 399 41 315 C39 302 38 289 38 277 C38 78 318 75 318 -62 C318 -67 317 -73 316 -79 C308 -131 261 -169 201 -169 L167 -169 C116 -169 80 -132 80 -83 C80 -78 81 -73 82 -67 L85 -45 C85 -44 85 -44 85 -43 C85 -38 81 -34 76 -34 L31 -34 C25 -34 19 -39 18 -45 L14 -67 C13 -77 12 -85 12 -94 C12 -175 72 -236 156 -236 L190 -236 C279 -236 368 -176 384 -79 C385 -68 386 -58 386 -49 C386 -14 376 14 358 38 C410 62 460 118 473 202 C475 216 476 228 476 240 C476 439 197 443 197 579 C197 585 197 590 198 596 C206 648 254 686 314 686 L336 686 C387 686 423 649 423 601 C423 596 422 590 421 585 C421 584 421 584 421 583 C421 578 425 574 431 574 L476 574 C482 574 488 579 489 585 L489 585 Z " />
<glyph glyph-name="dieresis" unicode="&#xa8;" horiz-adv-x="550" d="M280 686 C280 687 280 687 280 688 C280 693 276 697 270 697 L192 697 C186 697 180 692 179 686 L164 596 L164 595 C164 589 168 585 174 585 L253 585 C259 585 265 590 266 596 L280 686 Z M471 686 C471 687 471 687 471 688 C471 693 467 697 462 697 L383 697 C377 697 371 692 370 686 L356 596 L356 595 C356 589 360 585 365 585 L444 585 C450 585 456 590 457 596 L471 686 Z " />
<glyph glyph-name="copyright" unicode="&#xa9;" horiz-adv-x="550" d="M408 574 C409 578 409 582 409 586 C409 624 381 652 342 652 L297 652 C254 652 213 617 206 574 L192 484 C191 480 191 475 191 471 C191 434 219 405 258 405 L303 405 C346 405 387 440 394 484 L394 485 C394 491 390 495 385 495 L362 495 C356 495 350 490 349 484 C346 465 329 450 310 450 L265 450 C248 450 236 462 236 478 C236 480 236 482 237 484 L251 574 C254 592 271 607 290 607 L335 607 C352 607 364 595 364 579 C364 577 364 576 363 574 C363 573 363 573 363 572 C363 567 367 562 373 562 L395 562 C401 562 407 568 408 574 L408 574 Z M461 551 L454 506 C440 419 358 349 271 349 C193 349 137 406 137 481 C137 490 138 498 139 506 L146 551 C160 638 241 709 328 709 C407 709 463 651 463 576 C463 568 462 560 461 551 L461 551 Z M506 551 C508 562 509 573 509 583 C509 680 437 754 336 754 C224 754 119 663 101 551 L94 506 C92 495 91 485 91 474 C91 378 163 304 264 304 C376 304 481 394 499 506 L506 551 Z " />
<glyph glyph-name="ordfeminine" unicode="&#xaa;" horiz-adv-x="550" d="M359 619 L352 574 C346 536 311 506 274 506 L263 506 C229 506 205 531 205 563 C205 567 205 570 206 574 L213 619 C219 656 254 686 291 686 L302 686 C336 686 360 662 360 629 C360 626 360 622 359 619 L359 619 Z M423 382 C423 383 423 384 423 384 C423 389 419 394 414 394 L132 394 C126 394 120 388 119 382 L112 337 L112 336 C112 331 116 326 122 326 L403 326 C409 326 415 332 416 337 L423 382 Z M452 495 C452 496 452 496 452 497 C452 502 448 506 443 506 L420 506 C415 506 411 510 411 516 L411 517 L445 731 C445 732 445 732 445 733 C445 738 440 742 435 742 L390 742 C385 742 381 739 378 735 C360 747 338 754 313 754 L302 754 C227 754 157 693 145 619 L138 574 C137 567 137 559 137 552 C137 488 185 439 252 439 L263 439 C295 439 326 450 352 469 C364 450 384 439 409 439 L432 439 C438 439 444 444 445 450 L452 495 Z " />
<glyph glyph-name="guillemotleft" unicode="&#xab;" horiz-adv-x="550" d="M290 410 C293 413 294 417 294 419 C294 424 290 427 284 427 L232 427 C230 427 223 424 222 422 L105 281 C105 281 102 276 102 275 L97 242 L97 242 C97 241 98 237 98 236 L170 95 C171 93 176 90 178 90 L230 90 C239 90 244 95 244 101 C244 103 243 105 242 107 L167 256 L168 261 L290 410 Z M439 410 C441 413 443 417 443 419 C443 424 439 427 432 427 L380 427 C378 427 371 424 370 422 L254 281 C253 281 251 276 251 275 L246 242 L246 242 C246 241 246 237 246 236 L318 95 C319 93 325 90 327 90 L379 90 C387 90 392 95 392 101 C392 103 392 105 391 107 L315 256 L316 261 L439 410 Z " />
<glyph glyph-name="logicalnot" unicode="&#xac;" horiz-adv-x="550" d="M420 292 C420 293 420 294 420 294 C420 299 416 304 411 304 L118 304 C112 304 106 298 105 292 L98 247 L98 246 C98 241 102 236 107 236 L344 236 L331 157 L331 156 C331 151 335 146 341 146 L386 146 C392 146 398 152 399 157 L420 292 Z " />
<glyph glyph-name="registered" unicode="&#xae;" horiz-adv-x="550" d="M363 574 L362 562 C359 544 341 529 322 529 L255 529 L267 607 L335 607 C352 607 364 595 364 579 C364 577 364 576 363 574 L363 574 Z M408 574 C409 578 409 582 409 586 C409 624 381 652 342 652 L241 652 C235 652 229 647 228 641 L192 416 L192 415 C192 409 196 405 202 405 L224 405 C230 405 236 410 237 416 L248 484 L305 484 L337 410 C338 409 343 405 346 405 L372 405 C380 405 386 410 386 416 C386 418 385 420 384 422 L353 493 C380 506 402 532 407 562 L408 574 Z M461 551 L454 506 C440 419 358 349 271 349 C193 349 137 406 137 481 C137 490 138 498 139 506 L146 551 C160 638 241 709 328 709 C407 709 463 651 463 576 C463 568 462 560 461 551 L461 551 Z M506 551 C508 562 509 573 509 583 C509 680 437 754 336 754 C224 754 119 663 101 551 L94 506 C92 495 91 485 91 474 C91 378 163 304 264 304 C376 304 481 394 499 506 L506 551 Z " />
<glyph glyph-name="macron" unicode="&#xaf;" horiz-adv-x="550" d="M481 675 C481 676 481 676 481 677 C481 682 477 686 471 686 L179 686 C173 686 167 681 166 675 L158 630 C158 629 158 629 158 628 C158 623 163 619 168 619 L460 619 C466 619 473 624 473 630 L481 675 Z " />
<glyph glyph-name="degree" unicode="&#xb0;" horiz-adv-x="550" d="M399 585 L392 540 C383 484 330 439 274 439 C224 439 188 476 188 524 C188 529 188 535 189 540 L196 585 C205 641 258 686 314 686 C364 686 400 649 400 601 C400 596 400 590 399 585 L399 585 Z M466 585 C468 594 468 603 468 612 C468 692 408 754 324 754 C231 754 144 678 129 585 L122 540 C120 531 120 522 120 513 C120 433 180 371 264 371 C357 371 444 447 459 540 L466 585 Z " />
<glyph glyph-name="plusminus" unicode="&#xb1;" horiz-adv-x="550" d="M404 191 C404 192 404 192 404 193 C404 198 400 202 395 202 L102 202 C96 202 90 197 89 191 L82 146 L82 145 C82 139 86 135 91 135 L384 135 C390 135 396 140 397 146 L404 191 Z M436 394 L436 395 C436 401 432 405 427 405 L314 405 L325 472 C325 473 325 474 325 474 C325 479 321 484 315 484 L270 484 C264 484 258 478 257 472 L247 405 L134 405 C128 405 122 400 121 394 L114 349 C114 348 114 348 114 347 C114 342 118 337 123 337 L236 337 L225 270 C225 269 225 269 225 268 C225 263 229 259 235 259 L280 259 C286 259 292 264 293 270 L303 337 L416 337 C422 337 428 343 429 349 L436 394 Z " />
<glyph glyph-name="twosuperior" unicode="&#xb2;" horiz-adv-x="550" d="M288 669 C289 674 290 678 290 683 C290 723 260 754 217 754 L206 754 C160 754 116 716 108 669 L108 668 C108 662 112 658 118 658 L152 658 C158 658 164 663 165 669 C167 685 182 697 197 697 L209 697 C223 697 233 687 233 674 C233 672 232 671 232 669 C225 624 95 583 83 507 L76 461 C75 461 75 460 75 460 C75 454 80 450 85 450 L248 450 C254 450 260 455 261 461 L266 495 C267 496 267 496 267 497 C267 502 262 506 257 506 L139 506 L139 507 C145 544 276 590 288 669 L288 669 Z " />
<glyph glyph-name="threesuperior" unicode="&#xb3;" horiz-adv-x="550" d="M298 731 C298 732 298 732 298 733 C298 738 294 742 289 742 L148 742 C142 742 136 737 135 731 L130 697 L130 696 C130 691 134 686 139 686 L218 686 L163 639 C162 638 159 633 159 631 L151 585 C151 584 151 584 151 583 C151 578 155 574 161 574 L200 574 C214 574 224 563 224 550 C224 549 224 547 224 546 L220 523 C218 508 203 495 188 495 L165 495 C151 495 141 505 141 519 C141 520 141 522 142 523 C142 524 142 524 142 525 C142 530 138 534 132 534 L98 534 C92 534 86 529 85 523 C85 519 84 514 84 510 C84 470 114 439 156 439 L179 439 C225 439 269 477 277 523 L280 546 C281 550 281 555 281 559 C281 592 260 619 229 628 L286 677 C287 678 291 684 291 685 L298 731 Z " />
<glyph glyph-name="acute" unicode="&#xb4;" horiz-adv-x="550" d="M459 701 C463 704 465 708 465 712 C465 716 461 720 454 720 L386 720 C385 720 378 717 377 716 L269 603 C266 600 264 596 264 593 C264 588 268 585 275 585 L320 585 C321 585 328 587 329 588 L459 701 Z " />
<glyph glyph-name="mu" unicode="&#xb5;" horiz-adv-x="550" d="M476 506 C476 507 477 507 477 508 C477 513 472 517 467 517 L422 517 C416 517 410 512 409 506 L354 157 C345 102 292 56 236 56 L214 56 C163 56 127 93 127 142 C127 147 128 152 129 157 L184 506 C184 507 184 507 184 508 C184 513 180 517 174 517 L129 517 C123 517 117 512 116 506 L2 -214 L2 -215 C2 -221 6 -225 12 -225 L57 -225 C63 -225 69 -220 70 -214 L107 22 C132 1 165 -11 203 -11 L226 -11 C264 -11 301 1 332 22 L330 11 L330 10 C330 4 335 0 340 0 L385 0 C391 0 397 5 398 11 L476 506 Z " />
<glyph glyph-name="paragraph" unicode="&#xb6;" horiz-adv-x="550" d="M501 731 C501 732 501 733 501 733 C501 738 497 742 491 742 L289 742 C196 742 108 667 93 574 L84 517 C83 508 82 500 82 491 C82 410 142 349 226 349 L238 349 L149 -214 L148 -215 C148 -221 153 -225 158 -225 L203 -225 C209 -225 215 -220 216 -214 L357 675 L424 675 L284 -214 L283 -215 C283 -221 288 -225 293 -225 L338 -225 C344 -225 350 -220 351 -214 L501 731 Z " />
<glyph glyph-name="periodcentered" unicode="&#xb7;" horiz-adv-x="550" d="M325 259 C325 262 326 266 326 269 C326 302 302 326 268 326 C231 326 196 296 190 259 C189 255 189 252 189 248 C189 216 213 191 246 191 C284 191 319 221 325 259 L325 259 Z " />
<glyph glyph-name="cedilla" unicode="&#xb8;" horiz-adv-x="550" d="M274 11 L203 11 L153 -91 C151 -95 148 -101 148 -105 C148 -109 151 -112 158 -112 L205 -112 C209 -112 215 -108 217 -105 L274 11 Z " />
<glyph glyph-name="onesuperior" unicode="&#xb9;" horiz-adv-x="550" d="M270 484 L270 485 C270 491 266 495 261 495 L210 495 L248 731 C248 732 248 732 248 733 C248 738 244 742 238 742 L188 742 C184 742 182 741 179 739 L113 682 C110 679 108 676 108 672 C108 670 109 668 110 666 L130 642 C132 640 135 639 138 639 C141 639 144 640 146 642 L182 673 L154 495 L92 495 C86 495 80 490 79 484 L74 450 C74 449 74 449 74 448 C74 443 78 439 83 439 L252 439 C258 439 264 444 265 450 L270 484 Z " />
<glyph glyph-name="ordmasculine" unicode="&#xba;" horiz-adv-x="550" d="M370 619 L363 574 C357 536 322 506 285 506 L263 506 C229 506 205 531 205 563 C205 567 205 570 206 574 L213 619 C219 656 254 686 291 686 L314 686 C347 686 371 662 371 629 C371 626 371 622 370 619 L370 619 Z M389 382 C389 383 389 384 389 384 C389 389 385 394 380 394 L132 394 C126 394 120 388 119 382 L112 337 L112 336 C112 331 116 326 122 326 L369 326 C375 326 381 332 382 337 L389 382 Z M438 619 C439 626 440 633 440 640 C440 704 392 754 324 754 L302 754 C227 754 157 693 145 619 L138 574 C137 567 137 559 137 552 C137 488 185 439 252 439 L274 439 C349 439 419 499 431 574 L438 619 Z " />
<glyph glyph-name="guillemotright" unicode="&#xbb;" horiz-adv-x="550" d="M269 275 L269 275 C269 276 268 281 268 281 L196 422 C195 424 190 427 188 427 L136 427 C127 427 122 423 122 416 C122 414 123 412 124 410 L199 261 L198 256 L76 107 C73 104 72 101 72 98 C72 93 75 90 82 90 L134 90 C136 90 143 93 144 95 L261 236 C261 237 264 242 264 242 L269 275 Z M417 275 L417 275 C417 276 417 281 416 281 L345 422 C344 424 338 427 336 427 L284 427 C276 427 271 423 271 416 C271 414 271 412 272 410 L348 261 L347 256 L224 107 C221 104 220 101 220 98 C220 93 224 90 231 90 L283 90 C285 90 291 93 293 95 L409 236 C410 237 412 242 412 242 L417 275 Z " />
<glyph glyph-name="onequarter" unicode="&#xbc;" horiz-adv-x="550" d="M434 96 L434 97 C434 103 430 107 424 107 L396 107 L402 146 C403 147 403 147 403 148 C403 153 398 157 393 157 L359 157 C353 157 347 152 346 146 L340 107 L284 107 L398 288 C400 291 401 293 401 296 C401 300 397 304 391 304 L353 304 C351 304 344 300 342 297 L231 121 C230 119 230 118 229 116 L221 62 C221 61 221 61 221 60 C221 55 225 51 230 51 L331 51 L325 11 L325 10 C325 4 329 0 334 0 L368 0 C374 0 380 5 381 11 L387 51 L415 51 C421 51 428 56 428 62 L434 96 Z M462 506 L436 538 C434 540 431 541 428 541 C425 541 422 540 420 538 L89 253 C86 250 84 246 84 243 C84 241 85 238 86 237 L113 205 C115 203 118 202 121 202 C124 202 127 203 129 205 L460 490 C463 493 464 497 464 500 C464 503 464 505 462 506 L462 506 Z M270 484 L270 485 C270 491 266 495 261 495 L210 495 L248 731 C248 732 248 732 248 733 C248 738 244 742 238 742 L188 742 C184 742 182 741 179 739 L113 682 C110 679 108 676 108 672 C108 670 109 668 110 666 L130 642 C132 640 135 639 138 639 C141 639 144 640 146 642 L182 673 L154 495 L92 495 C86 495 80 490 79 484 L74 450 C74 449 74 449 74 448 C74 443 78 439 83 439 L252 439 C258 439 264 444 265 450 L270 484 Z " />
<glyph glyph-name="onehalf" unicode="&#xbd;" horiz-adv-x="550" d="M459 219 C460 224 460 228 460 233 C460 273 430 304 388 304 L377 304 C330 304 286 266 279 219 L279 218 C279 212 283 208 289 208 L322 208 C328 208 334 213 335 219 C338 235 352 247 368 247 L379 247 C393 247 403 237 403 224 C403 222 403 221 403 219 C396 174 265 133 253 57 L246 11 L246 10 C246 4 250 0 256 0 L419 0 C425 0 431 5 432 11 L437 45 C437 46 437 46 437 47 C437 52 433 56 428 56 L309 56 L310 57 C316 94 446 140 459 219 L459 219 Z M462 506 L436 538 C434 540 431 541 428 541 C425 541 422 540 420 538 L89 253 C86 250 84 246 84 243 C84 241 85 238 86 237 L113 205 C115 203 118 202 121 202 C124 202 127 203 129 205 L460 490 C463 493 464 497 464 500 C464 503 464 505 462 506 L462 506 Z M270 484 L270 485 C270 491 266 495 261 495 L210 495 L248 731 C248 732 248 732 248 733 C248 738 244 742 238 742 L188 742 C184 742 182 741 179 739 L113 682 C110 679 108 676 108 672 C108 670 109 668 110 666 L130 642 C132 640 135 639 138 639 C141 639 144 640 146 642 L182 673 L154 495 L92 495 C86 495 80 490 79 484 L74 450 C74 449 74 449 74 448 C74 443 78 439 83 439 L252 439 C258 439 264 444 265 450 L270 484 Z " />
<glyph glyph-name="threequarters" unicode="&#xbe;" horiz-adv-x="550" d="M434 96 L434 97 C434 103 430 107 424 107 L396 107 L402 146 C403 147 403 147 403 148 C403 153 398 157 393 157 L359 157 C353 157 347 152 346 146 L340 107 L284 107 L398 288 C400 291 401 293 401 296 C401 300 397 304 391 304 L353 304 C351 304 344 300 342 297 L231 121 C230 119 230 118 229 116 L221 62 C221 61 221 61 221 60 C221 55 225 51 230 51 L331 51 L325 11 L325 10 C325 4 329 0 334 0 L368 0 C374 0 380 5 381 11 L387 51 L415 51 C421 51 428 56 428 62 L434 96 Z M462 506 L436 538 C434 540 431 541 428 541 C425 541 422 540 420 538 L89 253 C86 250 84 246 84 243 C84 241 85 238 86 237 L113 205 C115 203 118 202 121 202 C124 202 127 203 129 205 L460 490 C463 493 464 497 464 500 C464 503 464 505 462 506 L462 506 Z M298 731 C298 732 298 732 298 733 C298 738 294 742 289 742 L148 742 C142 742 136 737 135 731 L130 697 L130 696 C130 691 134 686 139 686 L218 686 L163 639 C162 638 159 633 159 631 L151 585 C151 584 151 584 151 583 C151 578 155 574 161 574 L200 574 C214 574 224 563 224 550 C224 549 224 547 224 546 L220 523 C218 508 203 495 188 495 L165 495 C151 495 141 505 141 519 C141 520 141 522 142 523 C142 524 142 524 142 525 C142 530 138 534 132 534 L98 534 C92 534 86 529 85 523 C85 519 84 514 84 510 C84 470 114 439 156 439 L179 439 C225 439 269 477 277 523 L280 546 C281 550 281 555 281 559 C281 592 260 619 229 628 L286 677 C287 678 291 684 291 685 L298 731 Z " />
<glyph glyph-name="questiondown" unicode="&#xbf;" horiz-adv-x="550" d="M391 -34 C391 -33 391 -33 391 -32 C391 -27 387 -23 381 -23 L336 -23 C330 -23 324 -28 323 -34 L318 -68 C309 -123 257 -169 201 -169 L178 -169 C128 -169 92 -132 92 -83 C92 -78 92 -73 93 -68 L97 -45 C102 -11 116 36 207 97 C293 155 306 209 315 270 L317 281 C317 282 317 282 317 283 C317 288 313 292 308 292 L263 292 C257 292 250 287 249 281 L248 270 C240 219 234 190 175 151 C65 77 38 11 29 -45 L26 -68 C24 -77 23 -85 23 -94 C23 -175 83 -236 168 -236 L190 -236 C283 -236 371 -161 386 -68 L391 -34 Z M386 506 C386 507 387 507 387 508 C387 513 382 517 377 517 L264 517 C258 517 252 512 251 506 L234 394 C233 393 233 393 233 392 C233 387 238 382 243 382 L356 382 C362 382 368 388 369 394 L386 506 Z " />
<glyph glyph-name="Agrave" unicode="&#xc0;" horiz-adv-x="550" d="M369 315 L164 315 L315 675 L331 675 L369 315 Z M441 287 L394 734 C394 738 389 742 385 742 L283 742 C279 742 272 738 270 734 L82 287 L81 284 L38 11 L38 10 C38 4 42 0 47 0 L92 0 C98 0 105 5 105 11 L143 247 L368 247 L330 11 L330 10 C330 4 335 0 340 0 L385 0 C391 0 397 5 398 11 L441 284 L441 287 Z M390 828 L318 941 C317 942 311 945 310 945 L242 945 C233 945 228 940 228 934 C228 931 229 928 231 926 L326 813 C326 812 332 810 333 810 L378 810 C387 810 392 815 392 821 C392 823 391 826 390 828 L390 828 Z " />
<glyph glyph-name="Aacute" unicode="&#xc1;" horiz-adv-x="550" d="M369 315 L164 315 L315 675 L331 675 L369 315 Z M441 287 L394 734 C394 738 389 742 385 742 L283 742 C279 742 272 738 270 734 L82 287 L81 284 L38 11 L38 10 C38 4 42 0 47 0 L92 0 C98 0 105 5 105 11 L143 247 L368 247 L330 11 L330 10 C330 4 335 0 340 0 L385 0 C391 0 397 5 398 11 L441 284 L441 287 Z M495 926 C499 929 501 933 501 937 C501 941 497 945 490 945 L422 945 C421 945 414 942 413 941 L305 828 C301 825 300 821 300 818 C300 813 304 810 311 810 L356 810 C357 810 363 812 364 813 L495 926 Z " />
<glyph glyph-name="Acircumflex" unicode="&#xc2;" horiz-adv-x="550" d="M369 315 L164 315 L315 675 L331 675 L369 315 Z M441 287 L394 734 C394 738 389 742 385 742 L283 742 C279 742 272 738 270 734 L82 287 L81 284 L38 11 L38 10 C38 4 42 0 47 0 L92 0 C98 0 105 5 105 11 L143 247 L368 247 L330 11 L330 10 C330 4 335 0 340 0 L385 0 C391 0 397 5 398 11 L441 284 L441 287 Z M486 828 L413 941 C413 942 407 945 405 945 L326 945 C325 945 318 942 317 941 L209 828 C206 825 204 821 204 818 C204 813 208 810 215 810 L260 810 C261 810 268 812 269 813 L357 890 L421 813 C422 812 428 810 429 810 L474 810 C482 810 488 815 488 821 C488 823 487 826 486 828 L486 828 Z " />
<glyph glyph-name="Atilde" unicode="&#xc3;" horiz-adv-x="550" d="M369 315 L164 315 L315 675 L331 675 L369 315 Z M441 287 L394 734 C394 738 389 742 385 742 L283 742 C279 742 272 738 270 734 L82 287 L81 284 L38 11 L38 10 C38 4 42 0 47 0 L92 0 C98 0 105 5 105 11 L143 247 L368 247 L330 11 L330 10 C330 4 335 0 340 0 L385 0 C391 0 397 5 398 11 L441 284 L441 287 Z M498 889 L498 890 C498 896 494 900 488 900 L454 900 C448 900 442 895 441 889 C440 878 431 861 411 861 C401 861 388 866 371 878 C347 896 323 904 300 904 C253 904 214 871 206 821 L206 820 C206 814 210 810 215 810 L249 810 C255 810 261 815 262 821 C264 832 273 849 292 849 C302 849 316 844 332 832 C356 814 381 806 404 806 C450 806 490 839 498 889 L498 889 Z " />
<glyph glyph-name="Adieresis" unicode="&#xc4;" horiz-adv-x="550" d="M369 315 L164 315 L315 675 L331 675 L369 315 Z M441 287 L394 734 C394 738 389 742 385 742 L283 742 C279 742 272 738 270 734 L82 287 L81 284 L38 11 L38 10 C38 4 42 0 47 0 L92 0 C98 0 105 5 105 11 L143 247 L368 247 L330 11 L330 10 C330 4 335 0 340 0 L385 0 C391 0 397 5 398 11 L441 284 L441 287 Z M319 934 L319 935 C319 941 315 945 310 945 L231 945 C225 945 219 940 218 934 L204 844 C203 843 203 843 203 842 C203 837 208 832 213 832 L292 832 C298 832 304 838 305 844 L319 934 Z M510 934 L510 935 C510 941 506 945 501 945 L422 945 C416 945 410 940 409 934 L395 844 C395 843 395 843 395 842 C395 837 399 832 404 832 L483 832 C489 832 495 838 496 844 L510 934 Z " />
<glyph glyph-name="Aring" unicode="&#xc5;" horiz-adv-x="550" d="M369 315 L164 315 L315 675 L331 675 L369 315 Z M441 287 L394 734 C394 738 389 742 385 742 L283 742 C279 742 272 738 270 734 L82 287 L81 284 L38 11 L38 10 C38 4 42 0 47 0 L92 0 C98 0 105 5 105 11 L143 247 L368 247 L330 11 L330 10 C330 4 335 0 340 0 L385 0 C391 0 397 5 398 11 L441 284 L441 287 Z M387 866 C384 848 367 832 348 832 C331 832 319 845 319 861 C319 863 319 864 320 866 C323 885 340 900 359 900 C376 900 388 888 388 872 C388 870 387 868 387 866 L387 866 Z M443 866 C444 871 445 876 445 880 C445 923 413 956 368 956 C318 956 271 916 263 866 C263 861 262 857 262 852 C262 809 294 776 339 776 C389 776 436 817 443 866 L443 866 Z " />
<glyph glyph-name="AE" unicode="&#xc6;" horiz-adv-x="550" d="M312 675 L255 315 L130 315 L282 675 L312 675 Z M546 731 C546 732 546 732 546 733 C546 738 542 742 536 742 L249 742 C245 742 238 738 237 734 L48 287 L47 284 L4 11 L4 10 C4 4 8 0 14 0 L59 0 C65 0 71 5 72 11 L109 247 L244 247 L207 11 L207 10 C207 4 211 0 216 0 L419 0 C425 0 431 5 432 11 L439 56 C439 57 439 57 439 58 C439 63 435 67 429 67 L283 67 L326 337 L450 337 C456 337 462 343 463 349 L470 394 L470 395 C470 401 466 405 460 405 L337 405 L379 675 L526 675 C532 675 538 680 539 686 L546 731 Z " />
<glyph glyph-name="Ccedilla" unicode="&#xc7;" horiz-adv-x="550" d="M500 585 C502 594 502 603 502 612 C502 692 442 754 358 754 L324 754 C231 754 144 678 129 585 L61 157 C60 148 59 140 59 131 C59 57 109 0 181 -10 L142 -91 C140 -95 137 -101 137 -105 C137 -109 139 -112 147 -112 L194 -112 C198 -112 204 -108 206 -105 L252 -11 C340 -3 418 69 432 157 L438 191 C438 192 438 192 438 193 C438 198 434 202 428 202 L383 202 C377 202 371 197 370 191 L365 157 C356 102 304 56 248 56 L214 56 C163 56 127 93 127 142 C127 147 128 152 129 157 L196 585 C205 641 258 686 314 686 L347 686 C398 686 434 649 434 601 C434 596 433 590 433 585 L429 562 L429 561 C429 556 433 551 439 551 L484 551 C489 551 496 557 497 562 L500 585 Z " />
<glyph glyph-name="Egrave" unicode="&#xc8;" horiz-adv-x="550" d="M523 731 C523 732 523 732 523 733 C523 738 519 742 514 742 L176 742 C170 742 164 737 163 731 L49 11 L49 10 C49 4 53 0 59 0 L396 0 C402 0 408 5 409 11 L416 56 C416 57 416 57 416 58 C416 63 412 67 407 67 L126 67 L168 337 L427 337 C433 337 439 343 440 349 L447 394 L447 395 C447 401 443 405 438 405 L179 405 L222 675 L503 675 C509 675 515 680 516 686 L523 731 Z M390 828 L318 941 C317 942 311 945 310 945 L242 945 C233 945 228 940 228 934 C228 931 229 928 231 926 L326 813 C326 812 332 810 333 810 L378 810 C387 810 392 815 392 821 C392 823 391 826 390 828 L390 828 Z " />
<glyph glyph-name="Eacute" unicode="&#xc9;" horiz-adv-x="550" d="M523 731 C523 732 523 732 523 733 C523 738 519 742 514 742 L176 742 C170 742 164 737 163 731 L49 11 L49 10 C49 4 53 0 59 0 L396 0 C402 0 408 5 409 11 L416 56 C416 57 416 57 416 58 C416 63 412 67 407 67 L126 67 L168 337 L427 337 C433 337 439 343 440 349 L447 394 L447 395 C447 401 443 405 438 405 L179 405 L222 675 L503 675 C509 675 515 680 516 686 L523 731 Z M495 926 C499 929 501 933 501 937 C501 941 497 945 490 945 L422 945 C421 945 414 942 413 941 L305 828 C301 825 300 821 300 818 C300 813 304 810 311 810 L356 810 C357 810 363 812 364 813 L495 926 Z " />
<glyph glyph-name="Ecircumflex" unicode="&#xca;" horiz-adv-x="550" d="M523 731 C523 732 523 732 523 733 C523 738 519 742 514 742 L176 742 C170 742 164 737 163 731 L49 11 L49 10 C49 4 53 0 59 0 L396 0 C402 0 408 5 409 11 L416 56 C416 57 416 57 416 58 C416 63 412 67 407 67 L126 67 L168 337 L427 337 C433 337 439 343 440 349 L447 394 L447 395 C447 401 443 405 438 405 L179 405 L222 675 L503 675 C509 675 515 680 516 686 L523 731 Z M497 828 L425 941 C424 942 418 945 416 945 L338 945 C336 945 329 942 328 941 L220 828 C217 825 215 821 215 818 C215 813 219 810 226 810 L271 810 C273 810 279 812 280 813 L368 890 L433 813 C433 812 439 810 440 810 L485 810 C494 810 499 815 499 821 C499 823 498 826 497 828 L497 828 Z " />
<glyph glyph-name="Edieresis" unicode="&#xcb;" horiz-adv-x="550" d="M523 731 C523 732 523 732 523 733 C523 738 519 742 514 742 L176 742 C170 742 164 737 163 731 L49 11 L49 10 C49 4 53 0 59 0 L396 0 C402 0 408 5 409 11 L416 56 C416 57 416 57 416 58 C416 63 412 67 407 67 L126 67 L168 337 L427 337 C433 337 439 343 440 349 L447 394 L447 395 C447 401 443 405 438 405 L179 405 L222 675 L503 675 C509 675 515 680 516 686 L523 731 Z M319 934 L319 935 C319 941 315 945 310 945 L231 945 C225 945 219 940 218 934 L204 844 C203 843 203 843 203 842 C203 837 208 832 213 832 L292 832 C298 832 304 838 305 844 L319 934 Z M510 934 L510 935 C510 941 506 945 501 945 L422 945 C416 945 410 940 409 934 L395 844 C395 843 395 843 395 842 C395 837 399 832 404 832 L483 832 C489 832 495 838 496 844 L510 934 Z " />
<glyph glyph-name="Igrave" unicode="&#xcc;" horiz-adv-x="550" d="M512 731 C512 732 512 732 512 733 C512 738 508 742 503 742 L165 742 C159 742 153 737 152 731 L145 686 L145 685 C145 679 149 675 154 675 L289 675 L193 67 L47 67 C41 67 35 62 34 56 L27 11 L27 10 C27 4 31 0 36 0 L396 0 C402 0 408 5 409 11 L416 56 C416 57 416 57 416 58 C416 63 412 67 407 67 L261 67 L357 675 L492 675 C498 675 504 680 505 686 L512 731 Z M390 828 L318 941 C317 942 311 945 310 945 L242 945 C233 945 228 940 228 934 C228 931 229 928 231 926 L326 813 C326 812 332 810 333 810 L378 810 C387 810 392 815 392 821 C392 823 391 826 390 828 L390 828 Z " />
<glyph glyph-name="Iacute" unicode="&#xcd;" horiz-adv-x="550" d="M512 731 C512 732 512 732 512 733 C512 738 508 742 503 742 L165 742 C159 742 153 737 152 731 L145 686 L145 685 C145 679 149 675 154 675 L289 675 L193 67 L47 67 C41 67 35 62 34 56 L27 11 L27 10 C27 4 31 0 36 0 L396 0 C402 0 408 5 409 11 L416 56 C416 57 416 57 416 58 C416 63 412 67 407 67 L261 67 L357 675 L492 675 C498 675 504 680 505 686 L512 731 Z M495 926 C499 929 501 933 501 937 C501 941 497 945 490 945 L422 945 C421 945 414 942 413 941 L305 828 C301 825 300 821 300 818 C300 813 304 810 311 810 L356 810 C357 810 363 812 364 813 L495 926 Z " />
<glyph glyph-name="Icircumflex" unicode="&#xce;" horiz-adv-x="550" d="M512 731 C512 732 512 732 512 733 C512 738 508 742 503 742 L165 742 C159 742 153 737 152 731 L145 686 L145 685 C145 679 149 675 154 675 L289 675 L193 67 L47 67 C41 67 35 62 34 56 L27 11 L27 10 C27 4 31 0 36 0 L396 0 C402 0 408 5 409 11 L416 56 C416 57 416 57 416 58 C416 63 412 67 407 67 L261 67 L357 675 L492 675 C498 675 504 680 505 686 L512 731 Z M486 828 L413 941 C413 942 407 945 405 945 L326 945 C325 945 318 942 317 941 L209 828 C206 825 204 821 204 818 C204 813 208 810 215 810 L260 810 C261 810 268 812 269 813 L357 890 L421 813 C422 812 428 810 429 810 L474 810 C482 810 488 815 488 821 C488 823 487 826 486 828 L486 828 Z " />
<glyph glyph-name="Idieresis" unicode="&#xcf;" horiz-adv-x="550" d="M512 731 C512 732 512 732 512 733 C512 738 508 742 503 742 L165 742 C159 742 153 737 152 731 L145 686 L145 685 C145 679 149 675 154 675 L289 675 L193 67 L47 67 C41 67 35 62 34 56 L27 11 L27 10 C27 4 31 0 36 0 L396 0 C402 0 408 5 409 11 L416 56 C416 57 416 57 416 58 C416 63 412 67 407 67 L261 67 L357 675 L492 675 C498 675 504 680 505 686 L512 731 Z M319 934 L319 935 C319 941 315 945 310 945 L231 945 C225 945 219 940 218 934 L204 844 C203 843 203 843 203 842 C203 837 208 832 213 832 L292 832 C298 832 304 838 305 844 L319 934 Z M510 934 L510 935 C510 941 506 945 501 945 L422 945 C416 945 410 940 409 934 L395 844 C395 843 395 843 395 842 C395 837 399 832 404 832 L483 832 C489 832 495 838 496 844 L510 934 Z " />
<glyph glyph-name="Eth" unicode="&#xd0;" horiz-adv-x="550" d="M429 574 L364 169 C356 113 303 67 247 67 L123 67 L166 337 L279 337 C285 337 291 343 292 349 L299 394 L299 395 C299 401 295 405 289 405 L177 405 L220 675 L343 675 C394 675 430 638 430 590 C430 585 429 579 429 574 L429 574 Z M496 574 C498 583 498 592 498 600 C498 681 438 742 354 742 L174 742 C168 742 162 737 161 731 L109 405 L42 405 C36 405 30 400 29 394 L22 349 C22 348 22 348 22 347 C22 342 26 337 31 337 L99 337 L47 11 L47 10 C47 4 51 0 56 0 L236 0 C330 0 417 76 432 169 L496 574 Z " />
<glyph glyph-name="Ntilde" unicode="&#xd1;" horiz-adv-x="550" d="M528 731 C528 732 528 732 528 733 C528 738 524 742 518 742 L473 742 C467 742 461 737 460 731 L371 169 C368 146 365 86 365 86 L345 86 C345 86 345 98 345 114 C345 132 345 156 343 169 L255 735 C255 738 249 742 246 742 L149 742 C143 742 137 737 136 731 L22 11 L22 10 C22 4 26 0 32 0 L77 0 C83 0 89 5 90 11 L179 574 C182 596 185 656 185 656 L205 656 C205 656 204 644 204 629 C204 610 205 586 207 574 L295 7 C295 4 301 0 304 0 L401 0 C407 0 413 5 414 11 L528 731 Z M498 889 L498 890 C498 896 494 900 488 900 L454 900 C448 900 442 895 441 889 C440 878 431 861 411 861 C401 861 388 866 371 878 C347 896 323 904 300 904 C253 904 214 871 206 821 L206 820 C206 814 210 810 215 810 L249 810 C255 810 261 815 262 821 C264 832 273 849 292 849 C302 849 316 844 332 832 C356 814 381 806 404 806 C450 806 490 839 498 889 L498 889 Z " />
<glyph glyph-name="Ograve" unicode="&#xd2;" horiz-adv-x="550" d="M427 585 L359 157 C350 102 298 56 242 56 L208 56 C158 56 122 93 122 142 C122 147 122 152 123 157 L191 585 C200 641 252 686 308 686 L342 686 C392 686 428 649 428 601 C428 596 428 590 427 585 L427 585 Z M494 585 C496 594 497 603 497 612 C497 692 437 754 352 754 L319 754 C226 754 138 678 123 585 L56 157 C54 148 53 140 53 131 C53 50 113 -11 198 -11 L231 -11 C324 -11 412 64 427 157 L494 585 Z M390 828 L318 941 C317 942 311 945 310 945 L242 945 C233 945 228 940 228 934 C228 931 229 928 231 926 L326 813 C326 812 332 810 333 810 L378 810 C387 810 392 815 392 821 C392 823 391 826 390 828 L390 828 Z " />
<glyph glyph-name="Oacute" unicode="&#xd3;" horiz-adv-x="550" d="M427 585 L359 157 C350 102 298 56 242 56 L208 56 C158 56 122 93 122 142 C122 147 122 152 123 157 L191 585 C200 641 252 686 308 686 L342 686 C392 686 428 649 428 601 C428 596 428 590 427 585 L427 585 Z M494 585 C496 594 497 603 497 612 C497 692 437 754 352 754 L319 754 C226 754 138 678 123 585 L56 157 C54 148 53 140 53 131 C53 50 113 -11 198 -11 L231 -11 C324 -11 412 64 427 157 L494 585 Z M495 926 C499 929 501 933 501 937 C501 941 497 945 490 945 L422 945 C421 945 414 942 413 941 L305 828 C301 825 300 821 300 818 C300 813 304 810 311 810 L356 810 C357 810 363 812 364 813 L495 926 Z " />
<glyph glyph-name="Ocircumflex" unicode="&#xd4;" horiz-adv-x="550" d="M427 585 L359 157 C350 102 298 56 242 56 L208 56 C158 56 122 93 122 142 C122 147 122 152 123 157 L191 585 C200 641 252 686 308 686 L342 686 C392 686 428 649 428 601 C428 596 428 590 427 585 L427 585 Z M494 585 C496 594 497 603 497 612 C497 692 437 754 352 754 L319 754 C226 754 138 678 123 585 L56 157 C54 148 53 140 53 131 C53 50 113 -11 198 -11 L231 -11 C324 -11 412 64 427 157 L494 585 Z M486 828 L413 941 C413 942 407 945 405 945 L326 945 C325 945 318 942 317 941 L209 828 C206 825 204 821 204 818 C204 813 208 810 215 810 L260 810 C261 810 268 812 269 813 L357 890 L421 813 C422 812 428 810 429 810 L474 810 C482 810 488 815 488 821 C488 823 487 826 486 828 L486 828 Z " />
<glyph glyph-name="Otilde" unicode="&#xd5;" horiz-adv-x="550" d="M427 585 L359 157 C350 102 298 56 242 56 L208 56 C158 56 122 93 122 142 C122 147 122 152 123 157 L191 585 C200 641 252 686 308 686 L342 686 C392 686 428 649 428 601 C428 596 428 590 427 585 L427 585 Z M494 585 C496 594 497 603 497 612 C497 692 437 754 352 754 L319 754 C226 754 138 678 123 585 L56 157 C54 148 53 140 53 131 C53 50 113 -11 198 -11 L231 -11 C324 -11 412 64 427 157 L494 585 Z M498 889 L498 890 C498 896 494 900 488 900 L454 900 C448 900 442 895 441 889 C440 878 431 861 411 861 C401 861 388 866 371 878 C347 896 323 904 300 904 C253 904 214 871 206 821 L206 820 C206 814 210 810 215 810 L249 810 C255 810 261 815 262 821 C264 832 273 849 292 849 C302 849 316 844 332 832 C356 814 381 806 404 806 C450 806 490 839 498 889 L498 889 Z " />
<glyph glyph-name="Odieresis" unicode="&#xd6;" horiz-adv-x="550" d="M427 585 L359 157 C350 102 298 56 242 56 L208 56 C158 56 122 93 122 142 C122 147 122 152 123 157 L191 585 C200 641 252 686 308 686 L342 686 C392 686 428 649 428 601 C428 596 428 590 427 585 L427 585 Z M494 585 C496 594 497 603 497 612 C497 692 437 754 352 754 L319 754 C226 754 138 678 123 585 L56 157 C54 148 53 140 53 131 C53 50 113 -11 198 -11 L231 -11 C324 -11 412 64 427 157 L494 585 Z M319 934 L319 935 C319 941 315 945 310 945 L231 945 C225 945 219 940 218 934 L204 844 C203 843 203 843 203 842 C203 837 208 832 213 832 L292 832 C298 832 304 838 305 844 L319 934 Z M510 934 L510 935 C510 941 506 945 501 945 L422 945 C416 945 410 940 409 934 L395 844 C395 843 395 843 395 842 C395 837 399 832 404 832 L483 832 C489 832 495 838 496 844 L510 934 Z " />
<glyph glyph-name="multiply" unicode="&#xd7;" horiz-adv-x="550" d="M420 381 L393 413 C391 415 388 416 386 416 C383 416 380 415 377 413 L267 318 L186 413 C184 415 182 416 179 416 C176 416 173 415 170 413 L133 381 C130 379 129 375 129 372 C129 369 129 367 131 365 L211 270 L101 175 C98 172 96 168 96 165 C96 162 97 160 98 159 L125 127 C127 125 129 124 132 124 C135 124 138 125 141 127 L251 222 L332 127 C334 125 336 124 339 124 C342 124 345 125 348 127 L385 159 C387 161 389 165 389 168 C389 171 388 173 387 175 L307 270 L417 365 C420 368 422 372 422 375 C422 378 421 380 420 381 L420 381 Z " />
<glyph glyph-name="Oslash" unicode="&#xd8;" horiz-adv-x="550" d="M428 596 C428 592 428 589 427 585 L359 157 C350 102 298 56 242 56 L208 56 C188 56 169 62 155 73 L428 596 Z M395 670 L122 147 C122 150 122 154 123 157 L191 585 C200 641 252 686 308 686 L342 686 C362 686 381 680 395 670 L395 670 Z M515 761 C516 763 516 765 516 767 C516 771 514 774 510 776 L470 791 C469 792 468 792 467 792 C462 792 457 789 455 785 L429 734 C407 747 381 754 352 754 L319 754 C226 754 138 678 123 585 L56 157 C54 148 53 140 53 131 C53 103 61 77 74 55 L35 -19 C34 -21 34 -23 34 -24 C34 -28 36 -32 40 -33 L80 -49 C81 -49 82 -49 83 -49 C88 -49 93 -46 95 -42 L121 8 C143 -4 169 -11 198 -11 L231 -11 C324 -11 412 64 427 157 L494 585 C496 594 497 603 497 612 C497 640 489 666 476 687 L515 761 Z " />
<glyph glyph-name="Ugrave" unicode="&#xd9;" horiz-adv-x="550" d="M512 731 C512 732 512 732 512 733 C512 738 508 742 503 742 L458 742 C452 742 445 737 445 731 L354 157 C345 102 292 56 236 56 L214 56 C163 56 127 93 127 142 C127 147 128 152 129 157 L220 731 C220 732 220 732 220 733 C220 738 215 742 210 742 L165 742 C159 742 153 737 152 731 L61 157 C60 148 59 140 59 131 C59 50 119 -11 203 -11 L226 -11 C319 -11 406 64 421 157 L512 731 Z M390 828 L318 941 C317 942 311 945 310 945 L242 945 C233 945 228 940 228 934 C228 931 229 928 231 926 L326 813 C326 812 332 810 333 810 L378 810 C387 810 392 815 392 821 C392 823 391 826 390 828 L390 828 Z " />
<glyph glyph-name="Uacute" unicode="&#xda;" horiz-adv-x="550" d="M512 731 C512 732 512 732 512 733 C512 738 508 742 503 742 L458 742 C452 742 445 737 445 731 L354 157 C345 102 292 56 236 56 L214 56 C163 56 127 93 127 142 C127 147 128 152 129 157 L220 731 C220 732 220 732 220 733 C220 738 215 742 210 742 L165 742 C159 742 153 737 152 731 L61 157 C60 148 59 140 59 131 C59 50 119 -11 203 -11 L226 -11 C319 -11 406 64 421 157 L512 731 Z M495 926 C499 929 501 933 501 937 C501 941 497 945 490 945 L422 945 C421 945 414 942 413 941 L305 828 C301 825 300 821 300 818 C300 813 304 810 311 810 L356 810 C357 810 363 812 364 813 L495 926 Z " />
<glyph glyph-name="Ucircumflex" unicode="&#xdb;" horiz-adv-x="550" d="M512 731 C512 732 512 732 512 733 C512 738 508 742 503 742 L458 742 C452 742 445 737 445 731 L354 157 C345 102 292 56 236 56 L214 56 C163 56 127 93 127 142 C127 147 128 152 129 157 L220 731 C220 732 220 732 220 733 C220 738 215 742 210 742 L165 742 C159 742 153 737 152 731 L61 157 C60 148 59 140 59 131 C59 50 119 -11 203 -11 L226 -11 C319 -11 406 64 421 157 L512 731 Z M486 828 L413 941 C413 942 407 945 405 945 L326 945 C325 945 318 942 317 941 L209 828 C206 825 204 821 204 818 C204 813 208 810 215 810 L260 810 C261 810 268 812 269 813 L357 890 L421 813 C422 812 428 810 429 810 L474 810 C482 810 488 815 488 821 C488 823 487 826 486 828 L486 828 Z " />
<glyph glyph-name="Udieresis" unicode="&#xdc;" horiz-adv-x="550" d="M512 731 C512 732 512 732 512 733 C512 738 508 742 503 742 L458 742 C452 742 445 737 445 731 L354 157 C345 102 292 56 236 56 L214 56 C163 56 127 93 127 142 C127 147 128 152 129 157 L220 731 C220 732 220 732 220 733 C220 738 215 742 210 742 L165 742 C159 742 153 737 152 731 L61 157 C60 148 59 140 59 131 C59 50 119 -11 203 -11 L226 -11 C319 -11 406 64 421 157 L512 731 Z M319 934 L319 935 C319 941 315 945 310 945 L231 945 C225 945 219 940 218 934 L204 844 C203 843 203 843 203 842 C203 837 208 832 213 832 L292 832 C298 832 304 838 305 844 L319 934 Z M510 934 L510 935 C510 941 506 945 501 945 L422 945 C416 945 410 940 409 934 L395 844 C395 843 395 843 395 842 C395 837 399 832 404 832 L483 832 C489 832 495 838 496 844 L510 934 Z " />
<glyph glyph-name="Yacute" unicode="&#xdd;" horiz-adv-x="550" d="M523 727 C524 730 525 732 525 734 C525 739 521 742 515 742 L466 742 C463 742 456 738 455 735 L282 415 L211 735 C210 738 205 742 201 742 L153 742 C145 742 140 737 140 730 C140 729 140 728 140 727 L234 325 L184 11 L184 10 C184 4 188 0 194 0 L239 0 C245 0 251 5 252 11 L301 325 L523 727 Z M495 926 C499 929 501 933 501 937 C501 941 497 945 490 945 L422 945 C420 945 414 942 413 941 L305 828 C301 825 300 821 300 818 C300 813 304 810 311 810 L356 810 C357 810 363 812 364 813 L495 926 Z " />
<glyph glyph-name="Thorn" unicode="&#xde;" horiz-adv-x="550" d="M405 427 L388 315 C379 259 326 214 270 214 L248 214 C197 214 161 251 161 299 C161 304 162 310 163 315 L180 427 C189 483 242 529 298 529 L320 529 C371 529 407 492 407 443 C407 438 406 433 405 427 L405 427 Z M473 427 C474 437 475 445 475 454 C475 535 415 596 331 596 L308 596 C270 596 233 584 202 563 L229 731 C229 732 229 732 229 733 C229 738 224 742 219 742 L174 742 C168 742 162 737 161 731 L47 11 L47 10 C47 4 51 0 56 0 L101 0 C107 0 114 5 114 11 L141 180 C166 159 199 146 237 146 L260 146 C353 146 440 222 455 315 L473 427 Z " />
<glyph glyph-name="germandbls" unicode="&#xdf;" horiz-adv-x="550" d="M498 585 C499 594 500 603 500 612 C500 692 440 754 356 754 L333 754 C240 754 153 678 138 585 L47 11 L47 10 C47 4 51 0 56 0 L101 0 C107 0 114 5 114 11 L205 585 C214 641 267 686 323 686 L345 686 C396 686 432 649 432 601 C432 596 431 590 430 585 L418 506 C409 450 357 405 301 405 L256 405 C250 405 244 400 243 394 L235 349 C235 348 235 348 235 347 C235 342 239 337 245 337 L301 337 C352 337 388 301 388 252 C388 247 387 242 386 236 L376 169 C367 113 314 67 258 67 L180 67 C174 67 168 62 167 56 L159 11 L159 10 C159 4 164 0 169 0 L248 0 C341 0 428 76 443 169 L454 236 C455 245 456 254 456 263 C456 310 436 350 403 375 C445 406 477 453 485 506 L498 585 Z " />
<glyph glyph-name="agrave" unicode="&#xe0;" horiz-adv-x="550" d="M374 360 L342 157 C334 102 281 56 225 56 L203 56 C152 56 116 93 116 142 C116 147 117 152 117 157 L149 360 C158 416 211 461 267 461 L289 461 C340 461 376 424 376 376 C376 371 375 365 374 360 L374 360 Z M465 506 C465 507 465 507 465 508 C465 513 461 517 456 517 L411 517 C405 517 399 512 398 506 L396 495 C371 516 338 529 300 529 L277 529 C184 529 97 453 82 360 L50 157 C48 148 48 140 48 131 C48 50 108 -11 192 -11 L214 -11 C261 -11 305 7 340 37 C353 15 377 0 407 0 L430 0 C436 0 442 5 443 11 L450 56 C450 57 450 57 450 58 C450 63 446 67 441 67 L418 67 C407 67 399 76 399 86 C399 88 399 89 399 90 L465 506 Z M354 603 L282 716 C281 717 276 720 274 720 L206 720 C198 720 192 715 192 709 C192 706 193 703 195 701 L290 588 C291 587 296 585 298 585 L343 585 C351 585 357 590 357 596 C357 598 356 601 354 603 L354 603 Z " />
<glyph glyph-name="aacute" unicode="&#xe1;" horiz-adv-x="550" d="M374 360 L342 157 C334 102 281 56 225 56 L203 56 C152 56 116 93 116 142 C116 147 117 152 117 157 L149 360 C158 416 211 461 267 461 L289 461 C340 461 376 424 376 376 C376 371 375 365 374 360 L374 360 Z M465 506 C465 507 465 507 465 508 C465 513 461 517 456 517 L411 517 C405 517 399 512 398 506 L396 495 C371 516 338 529 300 529 L277 529 C184 529 97 453 82 360 L50 157 C48 148 48 140 48 131 C48 50 108 -11 192 -11 L214 -11 C261 -11 305 7 340 37 C353 15 377 0 407 0 L430 0 C436 0 442 5 443 11 L450 56 C450 57 450 57 450 58 C450 63 446 67 441 67 L418 67 C407 67 399 76 399 86 C399 88 399 89 399 90 L465 506 Z M436 701 C441 704 443 708 443 712 C443 716 439 720 431 720 L364 720 C362 720 356 717 355 716 L247 603 C243 600 242 596 242 593 C242 588 246 585 253 585 L298 585 C299 585 305 587 306 588 L436 701 Z " />
<glyph glyph-name="acircumflex" unicode="&#xe2;" horiz-adv-x="550" d="M374 360 L342 157 C334 102 281 56 225 56 L203 56 C152 56 116 93 116 142 C116 147 117 152 117 157 L149 360 C158 416 211 461 267 461 L289 461 C340 461 376 424 376 376 C376 371 375 365 374 360 L374 360 Z M465 506 C465 507 465 507 465 508 C465 513 461 517 456 517 L411 517 C405 517 399 512 398 506 L396 495 C371 516 338 529 300 529 L277 529 C184 529 97 453 82 360 L50 157 C48 148 48 140 48 131 C48 50 108 -11 192 -11 L214 -11 C261 -11 305 7 340 37 C353 15 377 0 407 0 L430 0 C436 0 442 5 443 11 L450 56 C450 57 450 57 450 58 C450 63 446 67 441 67 L418 67 C407 67 399 76 399 86 C399 88 399 89 399 90 L465 506 Z M439 603 L366 716 C366 717 360 720 358 720 L280 720 C278 720 271 717 270 716 L162 603 C159 600 157 596 157 593 C157 588 161 585 168 585 L213 585 C214 585 221 587 222 588 L310 665 L375 588 C375 587 381 585 382 585 L427 585 C436 585 441 590 441 596 C441 598 440 601 439 603 L439 603 Z " />
<glyph glyph-name="atilde" unicode="&#xe3;" horiz-adv-x="550" d="M374 360 L342 157 C334 102 281 56 225 56 L203 56 C152 56 116 93 116 142 C116 147 117 152 117 157 L149 360 C158 416 211 461 267 461 L289 461 C340 461 376 424 376 376 C376 371 375 365 374 360 L374 360 Z M465 506 C465 507 465 507 465 508 C465 513 461 517 456 517 L411 517 C405 517 399 512 398 506 L396 495 C371 516 338 529 300 529 L277 529 C184 529 97 453 82 360 L50 157 C48 148 48 140 48 131 C48 50 108 -11 192 -11 L214 -11 C261 -11 305 7 340 37 C353 15 377 0 407 0 L430 0 C436 0 442 5 443 11 L450 56 C450 57 450 57 450 58 C450 63 446 67 441 67 L418 67 C407 67 399 76 399 86 C399 88 399 89 399 90 L465 506 Z M462 664 L462 665 C462 671 458 675 452 675 L419 675 C413 675 407 670 406 664 C404 653 395 636 375 636 C365 636 352 641 335 653 C312 671 287 679 264 679 C217 679 178 646 170 596 L170 595 C170 589 174 585 179 585 L213 585 C219 585 225 590 226 596 C228 607 237 624 256 624 C267 624 280 619 297 607 C320 589 345 581 368 581 C415 581 454 614 462 664 L462 664 Z " />
<glyph glyph-name="adieresis" unicode="&#xe4;" horiz-adv-x="550" d="M374 360 L342 157 C334 102 281 56 225 56 L203 56 C152 56 116 93 116 142 C116 147 117 152 117 157 L149 360 C158 416 211 461 267 461 L289 461 C340 461 376 424 376 376 C376 371 375 365 374 360 L374 360 Z M465 506 C465 507 465 507 465 508 C465 513 461 517 456 517 L411 517 C405 517 399 512 398 506 L396 495 C371 516 338 529 300 529 L277 529 C184 529 97 453 82 360 L50 157 C48 148 48 140 48 131 C48 50 108 -11 192 -11 L214 -11 C261 -11 305 7 340 37 C353 15 377 0 407 0 L430 0 C436 0 442 5 443 11 L450 56 C450 57 450 57 450 58 C450 63 446 67 441 67 L418 67 C407 67 399 76 399 86 C399 88 399 89 399 90 L465 506 Z M272 709 L272 710 C272 716 268 720 263 720 L184 720 C178 720 172 715 171 709 L157 619 C157 618 157 618 157 617 C157 612 161 607 166 607 L245 607 C251 607 257 613 258 619 L272 709 Z M463 709 C464 709 464 710 464 710 C464 716 459 720 454 720 L375 720 C369 720 363 715 362 709 L348 619 C348 618 348 618 348 617 C348 612 352 607 357 607 L436 607 C442 607 448 613 449 619 L463 709 Z " />
<glyph glyph-name="aring" unicode="&#xe5;" horiz-adv-x="550" d="M374 360 L342 157 C334 102 281 56 225 56 L203 56 C152 56 116 93 116 142 C116 147 117 152 117 157 L149 360 C158 416 211 461 267 461 L289 461 C340 461 376 424 376 376 C376 371 375 365 374 360 L374 360 Z M465 506 C465 507 465 507 465 508 C465 513 461 517 456 517 L411 517 C405 517 399 512 398 506 L396 495 C371 516 338 529 300 529 L277 529 C184 529 97 453 82 360 L50 157 C48 148 48 140 48 131 C48 50 108 -11 192 -11 L214 -11 C261 -11 305 7 340 37 C353 15 377 0 407 0 L430 0 C436 0 442 5 443 11 L450 56 C450 57 450 57 450 58 C450 63 446 67 441 67 L418 67 C407 67 399 76 399 86 C399 88 399 89 399 90 L465 506 Z M344 664 C341 645 323 630 305 630 C288 630 276 642 276 658 C276 660 276 662 276 664 C279 682 297 697 315 697 C332 697 344 685 344 669 C344 667 344 666 344 664 L344 664 Z M400 664 C401 669 401 673 401 678 C401 721 369 754 324 754 C275 754 228 713 220 664 C219 659 219 654 219 650 C219 607 251 574 296 574 C346 574 392 614 400 664 L400 664 Z " />
<glyph glyph-name="ae" unicode="&#xe6;" horiz-adv-x="550" d="M222 252 L202 124 C196 86 161 56 124 56 C82 56 64 63 64 97 C64 104 65 113 67 124 L71 146 C77 188 103 206 139 220 C169 231 198 240 222 252 L222 252 Z M447 394 L431 292 L296 292 L312 394 C318 431 353 461 391 461 C424 461 448 437 448 404 C448 401 448 397 447 394 L447 394 Z M515 394 C516 401 517 408 517 415 C517 479 469 529 401 529 C361 529 322 511 293 483 C272 511 239 529 199 529 C124 529 54 468 42 394 L36 353 C36 352 36 352 36 351 C36 346 40 342 45 342 L90 342 C96 342 102 347 103 353 L110 394 C116 431 151 461 188 461 C222 461 246 437 246 404 C246 401 245 397 245 394 L241 371 C235 329 209 312 173 298 C91 266 20 255 3 146 L0 124 C-3 111 -4 99 -4 88 C-4 15 41 -11 113 -11 C153 -11 192 6 222 34 C242 6 275 -11 316 -11 C390 -11 460 49 472 124 L476 146 C476 147 476 147 476 148 C476 153 472 157 466 157 L421 157 C415 157 409 152 408 146 L405 124 C399 86 364 56 326 56 C293 56 269 81 269 113 C269 117 269 120 270 124 L286 225 L477 225 C483 225 489 230 490 236 L515 394 Z " />
<glyph glyph-name="ccedilla" unicode="&#xe7;" horiz-adv-x="550" d="M453 360 C455 369 455 378 455 387 C455 467 395 529 311 529 L289 529 C196 529 108 453 93 360 L61 157 C60 148 59 140 59 131 C59 57 109 0 181 -10 L142 -91 C140 -95 137 -101 137 -105 C137 -109 139 -112 147 -112 L194 -112 C198 -112 204 -108 206 -105 L253 -9 C335 4 408 73 421 157 C421 158 421 159 421 159 C421 164 417 169 412 169 L367 169 C361 169 355 163 354 157 C345 102 292 56 236 56 L214 56 C163 56 127 93 127 142 C127 147 128 152 129 157 L161 360 C170 416 222 461 278 461 L301 461 C351 461 387 424 387 376 C387 371 387 365 386 360 C386 359 386 359 386 358 C386 353 390 349 395 349 L440 349 C446 349 452 354 453 360 L453 360 Z " />
<glyph glyph-name="egrave" unicode="&#xe8;" horiz-adv-x="550" d="M386 360 L375 292 L150 292 L161 360 C170 416 222 461 278 461 L300 461 C351 461 387 424 387 376 C387 371 387 365 386 360 L386 360 Z M453 360 C455 369 455 378 455 387 C455 467 395 529 311 529 L289 529 C195 529 108 453 93 360 L61 157 C60 148 59 140 59 131 C59 50 119 -11 203 -11 L226 -11 C303 -11 377 42 408 113 C409 115 409 116 409 118 C409 122 407 126 403 127 L361 139 C360 139 359 139 358 139 C353 139 348 136 346 131 C327 88 283 56 236 56 L214 56 C163 56 127 93 127 142 C127 147 128 152 129 157 L139 225 L421 225 C427 225 433 230 434 236 L453 360 Z M354 603 L282 716 C281 717 276 720 274 720 L206 720 C198 720 192 715 192 709 C192 706 193 703 195 701 L290 588 C291 587 296 585 298 585 L343 585 C351 585 357 590 357 596 C357 598 356 601 354 603 L354 603 Z " />
<glyph glyph-name="eacute" unicode="&#xe9;" horiz-adv-x="550" d="M386 360 L375 292 L150 292 L161 360 C170 416 222 461 278 461 L300 461 C351 461 387 424 387 376 C387 371 387 365 386 360 L386 360 Z M453 360 C455 369 455 378 455 387 C455 467 395 529 311 529 L289 529 C195 529 108 453 93 360 L61 157 C60 148 59 140 59 131 C59 50 119 -11 203 -11 L226 -11 C303 -11 377 42 408 113 C409 115 409 116 409 118 C409 122 407 126 403 127 L361 139 C360 139 359 139 358 139 C353 139 348 136 346 131 C327 88 283 56 236 56 L214 56 C163 56 127 93 127 142 C127 147 128 152 129 157 L139 225 L421 225 C427 225 433 230 434 236 L453 360 Z M459 701 C463 704 465 708 465 712 C465 716 461 720 454 720 L386 720 C385 720 378 717 377 716 L269 603 C266 600 264 596 264 593 C264 588 268 585 275 585 L320 585 C321 585 328 587 329 588 L459 701 Z " />
<glyph glyph-name="ecircumflex" unicode="&#xea;" horiz-adv-x="550" d="M386 360 L375 292 L150 292 L161 360 C170 416 222 461 278 461 L300 461 C351 461 387 424 387 376 C387 371 387 365 386 360 L386 360 Z M453 360 C455 369 455 378 455 387 C455 467 395 529 311 529 L289 529 C195 529 108 453 93 360 L61 157 C60 148 59 140 59 131 C59 50 119 -11 203 -11 L226 -11 C303 -11 377 42 408 113 C409 115 409 116 409 118 C409 122 407 126 403 127 L361 139 C360 139 359 139 358 139 C353 139 348 136 346 131 C327 88 283 56 236 56 L214 56 C163 56 127 93 127 142 C127 147 128 152 129 157 L139 225 L421 225 C427 225 433 230 434 236 L453 360 Z M450 603 L378 716 C377 717 371 720 370 720 L291 720 C289 720 283 717 281 716 L174 603 C170 600 169 596 169 593 C169 588 172 585 179 585 L224 585 C226 585 232 587 233 588 L321 665 L386 588 C386 587 392 585 393 585 L438 585 C447 585 452 590 452 596 C452 598 451 601 450 603 L450 603 Z " />
<glyph glyph-name="edieresis" unicode="&#xeb;" horiz-adv-x="550" d="M386 360 L375 292 L150 292 L161 360 C170 416 222 461 278 461 L300 461 C351 461 387 424 387 376 C387 371 387 365 386 360 L386 360 Z M453 360 C455 369 455 378 455 387 C455 467 395 529 311 529 L289 529 C195 529 108 453 93 360 L61 157 C60 148 59 140 59 131 C59 50 119 -11 203 -11 L226 -11 C303 -11 377 42 408 113 C409 115 409 116 409 118 C409 122 407 126 403 127 L361 139 C360 139 359 139 358 139 C353 139 348 136 346 131 C327 88 283 56 236 56 L214 56 C163 56 127 93 127 142 C127 147 128 152 129 157 L139 225 L421 225 C427 225 433 230 434 236 L453 360 Z M283 709 C284 709 284 710 284 710 C284 716 279 720 274 720 L195 720 C189 720 183 715 182 709 L168 619 C168 618 168 618 168 617 C168 612 172 607 177 607 L256 607 C262 607 268 613 269 619 L283 709 Z M475 709 L475 710 C475 716 471 720 465 720 L386 720 C380 720 374 715 373 709 L359 619 C359 618 359 618 359 617 C359 612 363 607 369 607 L447 607 C453 607 459 613 460 619 L475 709 Z " />
<glyph glyph-name="igrave" unicode="&#xec;" horiz-adv-x="550" d="M450 56 C450 57 450 57 450 58 C450 63 446 67 441 67 L294 67 L364 506 C364 507 364 507 364 508 C364 513 360 517 354 517 L152 517 C146 517 140 512 139 506 L132 461 L132 460 C132 454 136 450 141 450 L287 450 L227 67 L36 67 C30 67 24 62 23 56 L15 11 L15 10 C15 4 20 0 25 0 L430 0 C436 0 442 5 443 11 L450 56 Z M377 603 L305 716 C304 717 298 720 296 720 L229 720 C220 720 215 715 215 709 C215 706 216 703 218 701 L313 588 C313 587 319 585 320 585 L365 585 C374 585 379 590 379 596 C379 598 378 601 377 603 L377 603 Z " />
<glyph glyph-name="iacute" unicode="&#xed;" horiz-adv-x="550" d="M450 56 C450 57 450 57 450 58 C450 63 446 67 441 67 L294 67 L364 506 C364 507 364 507 364 508 C364 513 360 517 354 517 L152 517 C146 517 140 512 139 506 L132 461 L132 460 C132 454 136 450 141 450 L287 450 L227 67 L36 67 C30 67 24 62 23 56 L15 11 L15 10 C15 4 20 0 25 0 L430 0 C436 0 442 5 443 11 L450 56 Z M459 701 C463 704 465 708 465 712 C465 716 461 720 454 720 L386 720 C385 720 378 717 377 716 L269 603 C266 600 264 596 264 593 C264 588 268 585 275 585 L320 585 C321 585 328 587 329 588 L459 701 Z " />
<glyph glyph-name="icircumflex" unicode="&#xee;" horiz-adv-x="550" d="M450 56 C450 57 450 57 450 58 C450 63 446 67 441 67 L294 67 L364 506 C364 507 364 507 364 508 C364 513 360 517 354 517 L152 517 C146 517 140 512 139 506 L132 461 L132 460 C132 454 136 450 141 450 L287 450 L227 67 L36 67 C30 67 24 62 23 56 L15 11 L15 10 C15 4 20 0 25 0 L430 0 C436 0 442 5 443 11 L450 56 Z M484 603 L411 716 C411 717 405 720 403 720 L325 720 C323 720 316 717 315 716 L207 603 C204 600 202 596 202 593 C202 588 206 585 213 585 L258 585 C259 585 266 587 267 588 L355 665 L420 588 C420 587 426 585 427 585 L472 585 C481 585 486 590 486 596 C486 598 485 601 484 603 L484 603 Z " />
<glyph glyph-name="idieresis" unicode="&#xef;" horiz-adv-x="550" d="M450 56 C450 57 450 57 450 58 C450 63 446 67 441 67 L294 67 L364 506 C364 507 364 507 364 508 C364 513 360 517 354 517 L152 517 C146 517 140 512 139 506 L132 461 L132 460 C132 454 136 450 141 450 L287 450 L227 67 L36 67 C30 67 24 62 23 56 L15 11 L15 10 C15 4 20 0 25 0 L430 0 C436 0 442 5 443 11 L450 56 Z M317 709 L317 710 C317 716 313 720 308 720 L229 720 C223 720 217 715 216 709 L202 619 C202 618 202 618 202 617 C202 612 206 607 211 607 L290 607 C296 607 302 613 303 619 L317 709 Z M508 709 C509 709 509 710 509 710 C509 716 504 720 499 720 L420 720 C414 720 408 715 407 709 L393 619 C393 618 393 618 393 617 C393 612 397 607 402 607 L481 607 C487 607 493 613 494 619 L508 709 Z " />
<glyph glyph-name="eth" unicode="&#xf0;" horiz-adv-x="550" d="M377 360 L345 157 C336 102 283 56 227 56 L205 56 C154 56 118 93 118 142 C118 147 119 152 120 157 L152 360 C161 416 213 461 269 461 L292 461 C342 461 378 424 378 376 C378 371 378 365 377 360 L377 360 Z M571 664 L571 665 C571 671 567 675 562 675 L494 675 L503 731 C503 732 503 732 503 733 C503 738 499 742 494 742 L449 742 C443 742 436 737 436 731 L427 675 L337 675 C331 675 325 670 324 664 L316 619 C316 618 316 618 316 617 C316 612 320 607 326 607 L416 607 L398 495 C373 516 340 529 302 529 L280 529 C187 529 99 453 84 360 L52 157 C51 148 50 140 50 131 C50 50 110 -11 194 -11 L217 -11 C255 -11 292 1 323 22 L321 11 L321 10 C321 4 326 0 331 0 L376 0 C382 0 388 5 389 11 L483 607 L551 607 C557 607 563 613 564 619 L571 664 Z " />
<glyph glyph-name="ntilde" unicode="&#xf1;" horiz-adv-x="550" d="M458 360 C459 369 460 378 460 387 C460 467 400 529 316 529 L293 529 C255 529 218 516 187 495 L188 506 C188 507 189 507 189 508 C189 513 184 517 179 517 L134 517 C128 517 122 512 121 506 L42 11 L42 10 C42 4 47 0 52 0 L97 0 C103 0 109 5 110 11 L165 360 C174 416 227 461 282 461 L305 461 C355 461 391 424 391 376 C391 371 391 365 390 360 L335 11 L335 10 C335 4 339 0 344 0 L389 0 C395 0 402 5 402 11 L458 360 Z M466 664 C467 664 467 665 467 665 C467 671 462 675 457 675 L423 675 C417 675 411 670 410 664 C408 653 400 636 380 636 C370 636 356 641 340 653 C316 671 292 679 269 679 C222 679 182 646 175 596 C174 596 174 595 174 595 C174 589 179 585 184 585 L218 585 C224 585 230 590 231 596 C232 607 241 624 261 624 C271 624 285 619 301 607 C325 589 349 581 372 581 C419 581 459 614 466 664 L466 664 Z " />
<glyph glyph-name="ograve" unicode="&#xf2;" horiz-adv-x="550" d="M386 360 L354 157 C345 102 292 56 236 56 L214 56 C163 56 127 93 127 142 C127 147 128 152 129 157 L161 360 C170 416 222 461 278 461 L300 461 C351 461 387 424 387 376 C387 371 387 365 386 360 L386 360 Z M453 360 C455 369 455 378 455 387 C455 467 395 529 311 529 L289 529 C196 529 108 453 93 360 L61 157 C60 148 59 140 59 131 C59 50 119 -11 203 -11 L226 -11 C319 -11 406 64 421 157 L453 360 Z M354 603 L282 716 C281 717 276 720 274 720 L206 720 C198 720 192 715 192 709 C192 706 193 703 195 701 L290 588 C291 587 296 585 298 585 L343 585 C351 585 357 590 357 596 C357 598 356 601 354 603 L354 603 Z " />
<glyph glyph-name="oacute" unicode="&#xf3;" horiz-adv-x="550" d="M386 360 L354 157 C345 102 292 56 236 56 L214 56 C163 56 127 93 127 142 C127 147 128 152 129 157 L161 360 C170 416 222 461 278 461 L300 461 C351 461 387 424 387 376 C387 371 387 365 386 360 L386 360 Z M453 360 C455 369 455 378 455 387 C455 467 395 529 311 529 L289 529 C196 529 108 453 93 360 L61 157 C60 148 59 140 59 131 C59 50 119 -11 203 -11 L226 -11 C319 -11 406 64 421 157 L453 360 Z M459 701 C463 704 465 708 465 712 C465 716 461 720 454 720 L386 720 C385 720 378 717 377 716 L269 603 C266 600 264 596 264 593 C264 588 268 585 275 585 L320 585 C321 585 328 587 329 588 L459 701 Z " />
<glyph glyph-name="ocircumflex" unicode="&#xf4;" horiz-adv-x="550" d="M386 360 L354 157 C345 102 292 56 236 56 L214 56 C163 56 127 93 127 142 C127 147 128 152 129 157 L161 360 C170 416 222 461 278 461 L300 461 C351 461 387 424 387 376 C387 371 387 365 386 360 L386 360 Z M453 360 C455 369 455 378 455 387 C455 467 395 529 311 529 L289 529 C196 529 108 453 93 360 L61 157 C60 148 59 140 59 131 C59 50 119 -11 203 -11 L226 -11 C319 -11 406 64 421 157 L453 360 Z M450 603 L378 716 C377 717 371 720 370 720 L291 720 C289 720 283 717 281 716 L174 603 C170 600 169 596 169 593 C169 588 172 585 179 585 L224 585 C226 585 232 587 233 588 L321 665 L386 588 C386 587 392 585 393 585 L438 585 C447 585 452 590 452 596 C452 598 451 601 450 603 L450 603 Z " />
<glyph glyph-name="otilde" unicode="&#xf5;" horiz-adv-x="550" d="M386 360 L354 157 C345 102 292 56 236 56 L214 56 C163 56 127 93 127 142 C127 147 128 152 129 157 L161 360 C170 416 222 461 278 461 L300 461 C351 461 387 424 387 376 C387 371 387 365 386 360 L386 360 Z M453 360 C455 369 455 378 455 387 C455 467 395 529 311 529 L289 529 C196 529 108 453 93 360 L61 157 C60 148 59 140 59 131 C59 50 119 -11 203 -11 L226 -11 C319 -11 406 64 421 157 L453 360 Z M462 664 L462 665 C462 671 458 675 452 675 L419 675 C413 675 407 670 406 664 C404 653 395 636 375 636 C365 636 352 641 335 653 C312 671 287 679 264 679 C217 679 178 646 170 596 L170 595 C170 589 174 585 179 585 L213 585 C219 585 225 590 226 596 C228 607 237 624 256 624 C267 624 280 619 297 607 C320 589 345 581 368 581 C415 581 454 614 462 664 L462 664 Z " />
<glyph glyph-name="odieresis" unicode="&#xf6;" horiz-adv-x="550" d="M386 360 L354 157 C345 102 292 56 236 56 L214 56 C163 56 127 93 127 142 C127 147 128 152 129 157 L161 360 C170 416 222 461 278 461 L300 461 C351 461 387 424 387 376 C387 371 387 365 386 360 L386 360 Z M453 360 C455 369 455 378 455 387 C455 467 395 529 311 529 L289 529 C196 529 108 453 93 360 L61 157 C60 148 59 140 59 131 C59 50 119 -11 203 -11 L226 -11 C319 -11 406 64 421 157 L453 360 Z M283 709 C284 709 284 710 284 710 C284 716 279 720 274 720 L195 720 C189 720 183 715 182 709 L168 619 C168 618 168 618 168 617 C168 612 172 607 177 607 L256 607 C262 607 268 613 269 619 L283 709 Z M475 709 L475 710 C475 716 471 720 465 720 L386 720 C380 720 374 715 373 709 L359 619 C359 618 359 618 359 617 C359 612 363 607 369 607 L447 607 C453 607 459 613 460 619 L475 709 Z " />
<glyph glyph-name="divide" unicode="&#xf7;" horiz-adv-x="550" d="M297 157 C297 158 298 159 298 159 C298 164 293 169 288 169 L198 169 C192 169 186 163 185 157 L171 67 L171 66 C171 61 175 56 180 56 L270 56 C276 56 282 62 283 67 L297 157 Z M420 292 C420 293 420 294 420 294 C420 299 416 304 411 304 L118 304 C112 304 106 298 105 292 L98 247 L98 246 C98 241 102 236 107 236 L400 236 C406 236 412 242 413 247 L420 292 Z M347 472 C347 473 347 474 347 474 C347 479 343 484 338 484 L248 484 C242 484 236 478 235 472 L221 382 C220 382 220 381 220 381 C220 376 225 371 230 371 L320 371 C326 371 332 377 333 382 L347 472 Z " />
<glyph glyph-name="oslash" unicode="&#xf8;" horiz-adv-x="550" d="M325 458 L138 99 C131 112 127 126 127 142 C127 147 128 152 129 157 L161 360 C170 416 222 461 278 461 L301 461 C309 461 318 460 325 458 L325 458 Z M386 360 L354 157 C345 102 292 56 236 56 L214 56 C205 56 197 57 189 59 L376 418 C383 406 387 392 387 376 C387 371 387 365 386 360 L386 360 Z M453 360 C455 369 455 378 455 387 C455 428 440 464 413 489 L442 543 C443 545 443 547 443 549 C443 553 441 556 437 558 L397 573 C396 573 395 574 394 574 C389 574 384 571 382 566 L359 522 C344 526 328 529 311 529 L289 529 C196 529 108 453 93 360 L61 157 C60 148 59 140 59 131 C59 90 75 54 101 28 L73 -26 C72 -27 71 -29 71 -31 C71 -35 73 -39 77 -40 L117 -56 C118 -56 119 -56 120 -56 C125 -56 130 -53 132 -49 L156 -4 C170 -9 186 -11 203 -11 L226 -11 C319 -11 406 64 421 157 L453 360 Z " />
<glyph glyph-name="ugrave" unicode="&#xf9;" horiz-adv-x="550" d="M472 506 C472 507 472 507 472 508 C472 513 468 517 462 517 L417 517 C411 517 405 512 404 506 L349 157 C340 102 288 56 232 56 L209 56 C159 56 123 93 123 142 C123 147 123 152 124 157 L179 506 C179 507 180 507 180 508 C180 513 175 517 170 517 L125 517 C119 517 113 512 112 506 L57 157 C55 148 55 140 55 131 C55 50 115 -11 199 -11 L221 -11 C259 -11 296 1 328 22 L326 11 L326 10 C326 4 330 0 335 0 L380 0 C386 0 393 5 393 11 L472 506 Z M361 603 L289 716 C288 717 282 720 281 720 L213 720 C204 720 199 715 199 709 C199 706 200 703 202 701 L297 588 C298 587 303 585 304 585 L349 585 C358 585 363 590 363 596 C363 598 363 601 361 603 L361 603 Z " />
<glyph glyph-name="uacute" unicode="&#xfa;" horiz-adv-x="550" d="M472 506 C472 507 472 507 472 508 C472 513 468 517 462 517 L417 517 C411 517 405 512 404 506 L349 157 C340 102 288 56 232 56 L209 56 C159 56 123 93 123 142 C123 147 123 152 124 157 L179 506 C179 507 180 507 180 508 C180 513 175 517 170 517 L125 517 C119 517 113 512 112 506 L57 157 C55 148 55 140 55 131 C55 50 115 -11 199 -11 L221 -11 C259 -11 296 1 328 22 L326 11 L326 10 C326 4 330 0 335 0 L380 0 C386 0 393 5 393 11 L472 506 Z M443 701 C447 704 449 708 449 712 C449 716 446 720 438 720 L371 720 C369 720 362 717 361 716 L253 603 C250 600 248 596 248 593 C248 588 252 585 259 585 L304 585 C306 585 312 587 313 588 L443 701 Z " />
<glyph glyph-name="ucircumflex" unicode="&#xfb;" horiz-adv-x="550" d="M472 506 C472 507 472 507 472 508 C472 513 468 517 462 517 L417 517 C411 517 405 512 404 506 L349 157 C340 102 288 56 232 56 L209 56 C159 56 123 93 123 142 C123 147 123 152 124 157 L179 506 C179 507 180 507 180 508 C180 513 175 517 170 517 L125 517 C119 517 113 512 112 506 L57 157 C55 148 55 140 55 131 C55 50 115 -11 199 -11 L221 -11 C259 -11 296 1 328 22 L326 11 L326 10 C326 4 330 0 335 0 L380 0 C386 0 393 5 393 11 L472 506 Z M445 603 L373 716 C372 717 367 720 365 720 L286 720 C285 720 278 717 277 716 L169 603 C166 600 164 596 164 593 C164 588 168 585 175 585 L220 585 C221 585 228 587 228 588 L317 665 L381 588 C382 587 388 585 389 585 L434 585 C442 585 448 590 448 596 C448 598 447 601 445 603 L445 603 Z " />
<glyph glyph-name="udieresis" unicode="&#xfc;" horiz-adv-x="550" d="M472 506 C472 507 472 507 472 508 C472 513 468 517 462 517 L417 517 C411 517 405 512 404 506 L349 157 C340 102 288 56 232 56 L209 56 C159 56 123 93 123 142 C123 147 123 152 124 157 L179 506 C179 507 180 507 180 508 C180 513 175 517 170 517 L125 517 C119 517 113 512 112 506 L57 157 C55 148 55 140 55 131 C55 50 115 -11 199 -11 L221 -11 C259 -11 296 1 328 22 L326 11 L326 10 C326 4 330 0 335 0 L380 0 C386 0 393 5 393 11 L472 506 Z M279 709 L279 710 C279 716 275 720 269 720 L191 720 C185 720 179 715 178 709 L163 619 C163 618 163 618 163 617 C163 612 167 607 173 607 L252 607 C258 607 264 613 265 619 L279 709 Z M470 709 L470 710 C470 716 466 720 461 720 L382 720 C376 720 370 715 369 709 L355 619 C355 618 355 618 355 617 C355 612 359 607 364 607 L443 607 C449 607 455 613 456 619 L470 709 Z " />
<glyph glyph-name="yacute" unicode="&#xfd;" horiz-adv-x="550" d="M476 503 C477 505 478 507 478 509 C478 514 474 517 468 517 L423 517 C419 517 413 513 411 509 L242 124 L193 509 C192 513 187 517 183 517 L136 517 C128 517 123 512 123 505 C123 504 123 504 123 503 L193 15 C142 -99 141 -112 30 -112 L7 -112 C1 -112 -5 -118 -6 -124 L-13 -169 L-13 -170 C-13 -176 -9 -180 -4 -180 L19 -180 C104 -180 179 -172 227 -66 C275 40 476 503 476 503 L476 503 Z M459 701 C463 704 465 708 465 712 C465 716 461 720 454 720 L386 720 C385 720 378 717 377 716 L269 603 C266 600 264 596 264 593 C264 588 268 585 275 585 L320 585 C321 585 328 587 329 588 L459 701 Z " />
<glyph glyph-name="thorn" unicode="&#xfe;" horiz-adv-x="550" d="M395 360 L363 157 C354 102 301 56 245 56 L223 56 C172 56 136 93 136 142 C136 147 137 152 138 157 L170 360 C179 416 231 461 287 461 L310 461 C360 461 396 424 396 376 C396 371 396 365 395 360 L395 360 Z M462 360 C464 369 464 378 464 387 C464 467 404 529 320 529 L298 529 C260 529 223 516 191 495 L229 731 C229 732 229 732 229 733 C229 738 224 742 219 742 L174 742 C168 742 162 737 161 731 L11 -214 L11 -215 C11 -221 15 -225 21 -225 L66 -225 C72 -225 78 -220 79 -214 L116 22 C141 1 174 -11 212 -11 L235 -11 C328 -11 415 64 430 157 L462 360 Z " />
<glyph glyph-name="ydieresis" unicode="&#xff;" horiz-adv-x="550" d="M476 503 C477 505 478 507 478 509 C478 514 474 517 468 517 L423 517 C419 517 413 513 411 509 L242 124 L193 509 C192 513 187 517 183 517 L136 517 C128 517 123 512 123 505 C123 504 123 504 123 503 L193 15 C142 -99 141 -112 30 -112 L7 -112 C1 -112 -5 -118 -6 -124 L-13 -169 L-13 -170 C-13 -176 -9 -180 -4 -180 L19 -180 C104 -180 179 -172 227 -66 C275 40 476 503 476 503 L476 503 Z M291 686 C291 687 291 687 291 688 C291 693 287 697 282 697 L203 697 C197 697 191 692 190 686 L176 596 L176 595 C176 589 180 585 185 585 L264 585 C270 585 276 590 277 596 L291 686 Z M482 686 C482 687 483 687 483 688 C483 693 478 697 473 697 L394 697 C388 697 382 692 381 686 L367 596 L367 595 C367 589 371 585 376 585 L455 585 C461 585 467 590 468 596 L482 686 Z " />
<glyph glyph-name="dotlessi" unicode="&#x131;" horiz-adv-x="550" d="M319 439 C320 439 320 440 320 440 C320 446 315 450 310 450 L265 450 C259 450 253 445 252 439 L184 11 L184 10 C184 4 188 0 194 0 L239 0 C245 0 251 5 252 11 L319 439 Z " />
<glyph glyph-name="Lslash" unicode="&#x141;" horiz-adv-x="550" d="M428 56 C428 57 428 57 428 58 C428 63 424 67 418 67 L159 67 L202 334 L355 415 C360 417 363 422 363 427 C363 428 362 429 362 431 L345 469 C344 473 340 475 336 475 C335 475 333 475 331 474 L214 412 L265 731 C265 732 265 732 265 733 C265 738 260 742 255 742 L210 742 C204 742 198 737 197 731 L140 373 L54 327 C50 325 47 320 47 316 C47 314 47 313 48 312 L64 273 C66 269 69 267 73 267 C75 267 77 268 79 269 L128 295 L83 11 L83 10 C83 4 87 0 92 0 L407 0 C413 0 420 5 420 11 L428 56 Z " />
<glyph glyph-name="lslash" unicode="&#x142;" horiz-adv-x="550" d="M452 431 L435 469 C434 473 430 475 426 475 C425 475 423 475 421 474 L328 425 L377 731 C377 732 377 732 377 733 C377 738 373 742 368 742 L188 742 C182 742 175 737 175 731 L167 686 L167 685 C167 679 171 675 177 675 L301 675 L255 386 L144 327 C140 325 137 320 137 316 C137 314 137 313 138 312 L154 273 C156 269 159 267 163 267 C165 267 167 268 169 269 L242 308 L204 67 L36 67 C30 67 24 62 23 56 L15 11 L15 10 C15 4 20 0 25 0 L396 0 C402 0 408 5 409 11 L416 56 C416 57 416 57 416 58 C416 63 412 67 407 67 L272 67 L316 347 L445 415 C450 417 453 422 453 427 C453 428 452 429 452 431 L452 431 Z " />
<glyph glyph-name="OE" unicode="&#x152;" horiz-adv-x="550" d="M303 619 L225 124 C219 86 184 56 146 56 C113 56 89 81 89 113 C89 117 89 120 90 124 L168 619 C174 656 209 686 246 686 C280 686 304 662 304 629 C304 626 304 622 303 619 L303 619 Z M546 731 C546 732 546 732 546 733 C546 738 542 742 536 742 L334 742 C329 742 325 739 322 735 C304 747 282 754 257 754 C182 754 112 693 100 619 L22 124 C21 117 20 109 20 102 C20 38 68 -11 136 -11 C161 -11 185 -4 207 7 C208 3 212 0 216 0 L419 0 C425 0 431 5 432 11 L439 56 C439 57 439 57 439 58 C439 63 435 67 429 67 L283 67 L326 337 L450 337 C456 337 462 343 463 349 L470 394 L470 395 C470 401 466 405 460 405 L337 405 L379 675 L526 675 C532 675 538 680 539 686 L546 731 Z " />
<glyph glyph-name="oe" unicode="&#x153;" horiz-adv-x="550" d="M245 394 L202 124 C196 86 161 56 124 56 C90 56 66 81 66 113 C66 117 66 120 67 124 L110 394 C116 431 151 461 188 461 C222 461 246 437 246 404 C246 401 245 397 245 394 L245 394 Z M447 394 L431 292 L296 292 L312 394 C318 431 353 461 391 461 C424 461 448 437 448 404 C448 401 448 397 447 394 L447 394 Z M515 394 C516 401 517 408 517 415 C517 479 469 529 401 529 C361 529 322 511 293 483 C272 511 239 529 199 529 C124 529 54 468 42 394 L0 124 C-2 117 -2 109 -2 102 C-2 38 46 -11 113 -11 C153 -11 192 6 222 34 C242 6 275 -11 316 -11 C390 -11 460 49 472 124 L476 146 C476 147 476 147 476 148 C476 153 472 157 466 157 L421 157 C415 157 409 152 408 146 L405 124 C399 86 364 56 326 56 C293 56 269 81 269 113 C269 117 269 120 270 124 L286 225 L477 225 C483 225 489 230 490 236 L515 394 Z " />
<glyph glyph-name="Scaron" unicode="&#x160;" horiz-adv-x="550" d="M489 585 C490 594 491 603 491 612 C491 692 431 754 347 754 L324 754 C231 754 144 678 129 585 L124 551 C122 540 121 529 121 519 C121 345 372 355 372 213 C372 206 371 199 370 191 L365 157 C356 102 304 56 248 56 L203 56 C152 56 116 93 116 142 C116 147 117 152 117 157 L121 180 C121 181 121 181 121 182 C121 187 117 191 111 191 L66 191 C61 191 54 186 53 180 L50 157 C48 148 48 140 48 131 C48 50 108 -11 192 -11 L237 -11 C330 -11 418 64 432 157 L438 191 C440 204 441 215 441 226 C441 406 189 398 189 532 C189 538 190 545 191 551 L196 585 C205 641 258 686 314 686 L336 686 C387 686 423 649 423 601 C423 596 422 590 421 585 L418 562 L418 561 C418 556 422 551 427 551 L472 551 C478 551 484 557 485 562 L489 585 Z M501 924 C504 928 506 931 506 934 C506 939 502 943 495 943 L450 943 C449 943 442 940 441 939 L353 863 L289 939 C288 940 282 943 281 943 L236 943 C228 943 222 938 222 931 C222 929 223 927 224 924 L297 812 C297 810 303 808 305 808 L383 808 C385 808 392 810 393 812 L501 924 Z " />
<glyph glyph-name="scaron" unicode="&#x161;" horiz-adv-x="550" d="M455 371 C456 380 457 389 457 397 C457 479 392 529 311 529 L300 529 C211 529 122 473 107 376 C106 368 105 360 105 353 C105 207 364 249 364 155 C364 152 364 149 363 146 C355 94 307 56 248 56 L214 56 C160 56 126 87 126 132 C126 136 126 141 127 146 L130 169 C131 169 131 170 131 170 C131 176 126 180 121 180 L76 180 C70 180 64 175 63 169 L59 146 C58 137 57 128 57 120 C57 39 122 -11 203 -11 L237 -11 C326 -11 415 49 431 146 C432 154 432 162 432 169 C432 315 174 273 174 367 C174 370 174 373 174 376 C183 427 229 461 289 461 L300 461 C355 461 389 430 389 386 C389 381 388 376 387 371 L386 360 C386 359 386 359 386 358 C386 353 390 349 395 349 L440 349 C446 349 452 354 453 360 L455 371 Z M465 702 C469 705 471 709 471 712 C471 717 467 720 460 720 L415 720 C413 720 407 718 406 717 L318 640 L253 717 C253 718 247 720 246 720 L201 720 C192 720 187 715 187 709 C187 707 188 704 189 702 L261 589 C262 588 268 585 269 585 L348 585 C350 585 356 588 358 589 L465 702 Z " />
<glyph glyph-name="Ydieresis" unicode="&#x178;" horiz-adv-x="550" d="M523 727 C524 730 525 732 525 734 C525 739 521 742 515 742 L466 742 C463 742 456 738 455 735 L282 415 L211 735 C210 738 205 742 201 742 L153 742 C145 742 140 737 140 730 C140 729 140 728 140 727 L234 325 L184 11 L184 10 C184 4 188 0 194 0 L239 0 C245 0 251 5 252 11 L301 325 L523 727 Z M319 932 C319 932 319 933 319 934 C319 939 315 943 309 943 L231 943 C225 943 218 938 218 932 L203 842 C203 841 203 841 203 840 C203 835 207 831 213 831 L291 831 C297 831 304 836 305 842 L319 932 Z M510 932 C510 932 510 933 510 934 C510 939 506 943 501 943 L422 943 C416 943 410 938 409 932 L395 842 C394 841 394 841 394 840 C394 835 399 831 404 831 L483 831 C489 831 495 836 496 842 L510 932 Z " />
<glyph glyph-name="Zcaron" unicode="&#x17d;" horiz-adv-x="550" d="M512 731 C512 732 512 732 512 733 C512 738 508 742 503 742 L176 742 C170 742 164 737 163 731 L156 686 L156 685 C156 679 160 675 166 675 L427 675 L56 79 C48 67 47 65 44 51 L38 11 L38 10 C38 4 42 0 47 0 L396 0 C402 0 408 5 409 11 L416 56 C416 57 416 57 416 58 C416 63 412 67 407 67 L123 67 L495 664 C503 676 505 686 505 686 L512 731 Z M501 924 C504 928 506 931 506 934 C506 939 502 943 495 943 L450 943 C449 943 442 940 441 939 L353 863 L289 939 C288 940 282 943 281 943 L236 943 C228 943 222 938 222 931 C222 929 223 927 224 924 L297 812 C297 810 303 808 305 808 L383 808 C385 808 392 810 393 812 L501 924 Z " />
<glyph glyph-name="zcaron" unicode="&#x17e;" horiz-adv-x="550" d="M476 506 C476 507 477 507 477 508 C477 513 472 517 467 517 L141 517 C135 517 129 512 128 506 L121 461 C120 461 120 460 120 460 C120 454 125 450 130 450 L389 450 L49 70 L46 64 L38 11 L38 10 C38 4 42 0 47 0 L396 0 C402 0 408 5 409 11 L416 56 C416 57 416 57 416 58 C416 63 412 67 407 67 L130 67 L465 447 C465 448 468 453 468 454 L476 506 Z M465 702 C469 705 471 709 471 712 C471 717 467 720 460 720 L415 720 C413 720 407 718 406 717 L318 640 L253 717 C253 718 247 720 246 720 L201 720 C192 720 187 715 187 709 C187 707 188 704 189 702 L261 589 C262 588 268 585 269 585 L348 585 C350 585 356 588 358 589 L465 702 Z " />
<glyph glyph-name="florin" unicode="&#x192;" horiz-adv-x="550" d="M545 585 C547 595 548 605 548 615 C548 691 500 754 414 754 L392 754 C295 754 222 674 208 585 L193 495 L115 495 C109 495 103 490 102 484 L94 439 C94 438 94 438 94 437 C94 432 98 427 104 427 L183 427 L97 -113 C93 -137 70 -158 45 -158 C39 -158 33 -163 32 -169 L25 -214 L25 -215 C25 -221 29 -225 34 -225 C96 -225 155 -175 165 -113 L250 427 L374 427 C380 427 386 433 387 439 L394 484 L394 485 C394 491 390 495 385 495 L261 495 L275 585 C285 645 329 686 381 686 L404 686 C450 686 479 654 479 606 C479 599 479 592 478 585 L470 540 C470 539 470 539 470 538 C470 533 475 529 480 529 L525 529 C531 529 537 534 538 540 L545 585 Z " />
<glyph glyph-name="circumflex" unicode="&#x2c6;" horiz-adv-x="550" d="M450 603 L378 716 C377 717 371 720 370 720 L291 720 C289 720 283 717 281 716 L174 603 C170 600 169 596 169 593 C169 588 172 585 179 585 L224 585 C226 585 232 587 233 588 L321 665 L386 588 C386 587 392 585 393 585 L438 585 C447 585 452 590 452 596 C452 598 451 601 450 603 L450 603 Z " />
<glyph glyph-name="caron" unicode="&#x2c7;" horiz-adv-x="550" d="M466 702 C469 705 471 709 471 712 C471 717 467 720 460 720 L415 720 C413 720 407 718 406 717 L318 640 L253 717 C253 718 247 720 246 720 L201 720 C192 720 187 715 187 709 C187 707 188 704 189 702 L261 589 C262 588 268 585 269 585 L348 585 C350 585 356 588 358 589 L466 702 Z " />
<glyph glyph-name="breve" unicode="&#x2d8;" horiz-adv-x="550" d="M452 709 L452 710 C452 716 448 720 443 720 L398 720 C392 720 386 715 385 709 C380 678 351 652 320 652 C291 652 271 673 271 700 C271 703 272 706 272 709 L272 710 C272 716 268 720 263 720 L218 720 C212 720 206 715 205 709 C204 702 203 696 203 689 C203 630 247 585 309 585 C377 585 441 640 452 709 L452 709 Z " />
<glyph glyph-name="dotaccent" unicode="&#x2d9;" horiz-adv-x="550" d="M385 709 L385 710 C385 716 381 720 375 720 L285 720 C279 720 273 715 272 709 L258 619 C258 618 258 618 258 617 C258 612 262 607 267 607 L357 607 C363 607 370 613 370 619 L385 709 Z " />
<glyph glyph-name="ring" unicode="&#x2da;" horiz-adv-x="550" d="M366 664 C363 645 346 630 327 630 C310 630 298 642 298 658 C298 660 299 662 299 664 C302 682 319 697 338 697 C355 697 367 685 367 669 C367 667 367 666 366 664 L366 664 Z M423 664 C423 669 424 673 424 678 C424 721 392 754 347 754 C297 754 250 713 243 664 C242 659 241 654 241 650 C241 607 273 574 318 574 C368 574 415 614 423 664 L423 664 Z " />
<glyph glyph-name="ogonek" unicode="&#x2db;" horiz-adv-x="550" d="M251 -91 L233 11 L162 11 L182 -105 C183 -108 188 -112 191 -112 L239 -112 C249 -112 252 -106 252 -99 C252 -96 251 -93 251 -91 L251 -91 Z " />
<glyph glyph-name="tilde" unicode="&#x2dc;" horiz-adv-x="550" d="M462 664 L462 665 C462 671 458 675 452 675 L419 675 C413 675 407 670 406 664 C404 653 395 636 375 636 C365 636 352 641 335 653 C312 671 287 679 264 679 C217 679 178 646 170 596 L170 595 C170 589 174 585 179 585 L213 585 C219 585 225 590 226 596 C228 607 237 624 256 624 C267 624 280 619 297 607 C320 589 345 581 368 581 C415 581 454 614 462 664 L462 664 Z " />
<glyph glyph-name="hungarumlaut" unicode="&#x2dd;" horiz-adv-x="550" d="M339 701 C343 704 345 708 345 712 C345 716 341 720 334 720 L267 720 C265 720 258 717 257 716 L149 603 C146 600 144 596 144 593 C144 588 148 585 155 585 L200 585 C201 585 208 587 209 588 L339 701 Z M488 701 C492 704 494 708 494 712 C494 716 490 720 483 720 L415 720 C414 720 407 717 406 716 L298 603 C294 600 293 596 293 593 C293 588 297 585 304 585 L349 585 C350 585 356 587 357 588 L488 701 Z " />
<glyph glyph-name="pi" unicode="&#x3c0;" horiz-adv-x="550" d="M499 506 C499 507 499 507 499 508 C499 513 495 517 489 517 L107 517 C101 517 95 512 94 506 L87 461 L87 460 C87 454 91 450 96 450 L164 450 L94 11 L94 10 C94 4 98 0 104 0 L149 0 C155 0 161 5 162 11 L231 450 L355 450 L285 11 L285 10 C285 4 290 0 295 0 L407 0 C413 0 420 5 420 11 L428 56 C428 57 428 57 428 58 C428 63 424 67 418 67 L362 67 L422 450 L479 450 C485 450 491 455 492 461 L499 506 Z " />
<glyph glyph-name="endash" unicode="&#x2013;" horiz-adv-x="550" d="M398 292 C398 293 398 294 398 294 C398 299 393 304 388 304 L141 304 C135 304 128 298 128 292 L120 247 L120 246 C120 241 124 236 130 236 L377 236 C383 236 389 242 390 247 L398 292 Z " />
<glyph glyph-name="emdash" unicode="&#x2014;" horiz-adv-x="550" d="M490 292 C490 293 490 294 490 294 C490 299 486 304 481 304 L48 304 C42 304 36 298 35 292 L28 247 L28 246 C28 241 32 236 37 236 L470 236 C476 236 482 242 483 247 L490 292 Z " />
<glyph glyph-name="quoteleft" unicode="&#x2018;" horiz-adv-x="550" d="M400 731 C400 732 400 732 400 733 C400 738 395 742 390 742 C322 742 258 687 247 619 L225 484 C225 483 225 483 225 482 C225 477 229 472 235 472 L347 472 C353 472 359 478 360 484 L378 596 C378 597 378 597 378 598 C378 603 374 607 369 607 L312 607 L314 619 C319 650 348 675 379 675 C385 675 391 680 392 686 L400 731 Z " />
<glyph glyph-name="quoteright" unicode="&#x2019;" horiz-adv-x="550" d="M400 731 C400 732 400 732 400 733 C400 738 395 742 390 742 L278 742 C272 742 265 737 265 731 L247 619 C247 618 247 618 247 617 C247 612 251 607 256 607 L312 607 L311 596 C306 565 277 540 245 540 C239 540 233 535 232 529 L225 484 C225 483 225 483 225 482 C225 477 229 472 235 472 C303 472 367 528 378 596 L400 731 Z " />
<glyph glyph-name="quotesinglbase" unicode="&#x201a;" horiz-adv-x="550" d="M303 124 L303 125 C303 131 299 135 294 135 L181 135 C175 135 169 130 168 124 L150 11 L150 10 C150 4 155 0 160 0 L216 0 L214 -11 C209 -42 180 -67 149 -67 C143 -67 137 -73 136 -79 L129 -124 L129 -125 C129 -131 133 -135 139 -135 C207 -135 271 -80 282 -11 L303 124 Z " />
<glyph glyph-name="quotedblleft" unicode="&#x201c;" horiz-adv-x="550" d="M298 731 C298 732 298 732 298 733 C298 738 294 742 289 742 C220 742 156 687 145 619 L124 484 C124 483 124 483 124 482 C124 477 128 472 134 472 L246 472 C252 472 258 478 259 484 L277 596 C277 597 277 597 277 598 C277 603 273 607 267 607 L211 607 L213 619 C218 650 247 675 278 675 C284 675 290 680 291 686 L298 731 Z M501 731 C501 732 501 732 501 733 C501 738 497 742 491 742 C423 742 359 687 348 619 L327 484 C326 483 326 483 326 482 C326 477 331 472 336 472 L449 472 C455 472 461 478 462 484 L479 596 C479 597 480 597 480 598 C480 603 475 607 470 607 L414 607 L415 619 C420 650 450 675 481 675 C487 675 493 680 494 686 L501 731 Z " />
<glyph glyph-name="quotedblright" unicode="&#x201d;" horiz-adv-x="550" d="M298 731 C298 732 298 732 298 733 C298 738 294 742 289 742 L176 742 C170 742 164 737 163 731 L145 619 C145 618 145 618 145 617 C145 612 149 607 155 607 L211 607 L209 596 C204 565 175 540 144 540 C138 540 132 535 131 529 L124 484 C124 483 124 483 124 482 C124 477 128 472 134 472 C202 472 266 528 277 596 L298 731 Z M501 731 C501 732 501 732 501 733 C501 738 497 742 491 742 L379 742 C373 742 367 737 366 731 L348 619 C348 618 348 618 348 617 C348 612 352 607 357 607 L414 607 L412 596 C407 565 378 540 347 540 C341 540 335 535 334 529 L327 484 C326 483 326 483 326 482 C326 477 331 472 336 472 C404 472 469 528 479 596 L501 731 Z " />
<glyph glyph-name="quotedblbase" unicode="&#x201e;" horiz-adv-x="550" d="M202 124 L202 125 C202 131 198 135 193 135 L80 135 C74 135 68 130 67 124 L49 11 L49 10 C49 4 53 0 59 0 L115 0 L113 -11 C108 -42 79 -67 48 -67 C42 -67 36 -73 35 -79 L28 -124 L28 -125 C28 -131 32 -135 37 -135 C106 -135 170 -80 181 -11 L202 124 Z M405 124 L405 125 C405 131 401 135 395 135 L283 135 C277 135 270 130 270 124 L252 11 L252 10 C252 4 256 0 261 0 L317 0 L316 -11 C311 -42 282 -67 251 -67 C245 -67 238 -73 237 -79 L230 -124 L230 -125 C230 -131 234 -135 240 -135 C308 -135 372 -80 383 -11 L405 124 Z " />
<glyph glyph-name="dagger" unicode="&#x2020;" horiz-adv-x="550" d="M510 506 C510 507 510 507 510 508 C510 513 506 517 501 517 L332 517 L366 731 C366 732 366 732 366 733 C366 738 362 742 356 742 L311 742 C305 742 299 737 298 731 L264 517 L96 517 C90 517 84 512 83 506 L76 461 C75 461 75 460 75 460 C75 454 80 450 85 450 L254 450 L184 11 L184 10 C184 4 188 0 194 0 L239 0 C245 0 251 5 252 11 L321 450 L490 450 C496 450 502 455 503 461 L510 506 Z " />
<glyph glyph-name="daggerdbl" unicode="&#x2021;" horiz-adv-x="550" d="M510 506 C510 507 510 507 510 508 C510 513 506 517 501 517 L332 517 L366 731 C366 732 366 732 366 733 C366 738 362 742 356 742 L311 742 C305 742 299 737 298 731 L264 517 L96 517 C90 517 84 512 83 506 L76 461 C75 461 75 460 75 460 C75 454 80 450 85 450 L254 450 L193 67 L24 67 C18 67 12 62 11 56 L4 11 L4 10 C4 4 8 0 14 0 L182 0 L149 -214 L148 -215 C148 -221 153 -225 158 -225 L203 -225 C209 -225 215 -220 216 -214 L250 0 L419 0 C425 0 431 5 432 11 L439 56 C439 57 439 57 439 58 C439 63 435 67 429 67 L261 67 L321 450 L490 450 C496 450 502 455 503 461 L510 506 Z " />
<glyph glyph-name="bullet" unicode="&#x2022;" horiz-adv-x="550" d="M399 371 C400 378 400 384 400 391 C400 450 356 495 295 495 C226 495 162 440 151 371 C150 365 150 358 150 352 C150 293 194 247 255 247 C324 247 388 303 399 371 L399 371 Z " />
<glyph glyph-name="ellipsis" unicode="&#x2026;" horiz-adv-x="550" d="M112 124 L112 125 C112 131 108 135 103 135 L-10 135 C-16 135 -22 130 -23 124 L-41 11 L-41 10 C-41 4 -37 0 -31 0 L81 0 C87 0 93 5 94 11 L112 124 Z M303 124 L303 125 C303 131 299 135 294 135 L181 135 C175 135 169 130 168 124 L150 11 L150 10 C150 4 155 0 160 0 L272 0 C278 0 285 5 285 11 L303 124 Z M495 124 L495 125 C495 131 491 135 485 135 L373 135 C367 135 360 130 360 124 L342 11 L342 10 C342 4 346 0 351 0 L464 0 C470 0 476 5 477 11 L495 124 Z " />
<glyph glyph-name="perthousand" unicode="&#x2030;" horiz-adv-x="550" d="M305 208 L284 73 C282 58 267 45 251 45 L229 45 C215 45 205 55 205 69 C205 70 205 72 205 73 L227 208 C229 224 244 236 259 236 L282 236 C296 236 306 226 306 213 C306 211 306 210 305 208 L305 208 Z M440 208 L419 73 C417 58 402 45 386 45 L364 45 C350 45 340 55 340 69 C340 70 340 72 340 73 L362 208 C364 224 379 236 394 236 L417 236 C431 236 441 226 441 213 C441 211 441 210 440 208 L440 208 Z M221 669 L200 534 C197 519 183 506 167 506 L145 506 C130 506 120 517 120 530 C120 531 121 533 121 534 L142 669 C145 685 159 697 175 697 L197 697 C211 697 221 687 221 674 C221 672 221 671 221 669 L221 669 Z M497 208 C497 213 498 217 498 221 C498 262 468 292 426 292 L403 292 C382 292 361 284 343 271 C331 284 312 292 291 292 L268 292 C222 292 178 255 170 208 L149 73 C148 69 148 64 148 60 C148 20 178 -11 220 -11 L243 -11 C264 -11 285 -3 302 10 C315 -3 333 -11 355 -11 L378 -11 C424 -11 468 27 475 73 L497 208 Z M400 506 L374 538 C372 540 369 541 366 541 C363 541 360 540 358 538 L27 253 C24 250 23 246 23 243 C23 241 23 238 25 237 L51 205 C53 203 56 202 59 202 C62 202 65 203 67 205 L398 490 C401 493 403 497 403 500 C403 503 402 505 400 506 L400 506 Z M277 669 C278 674 278 678 278 683 C278 723 248 754 206 754 L184 754 C137 754 93 716 86 669 L65 534 C64 530 64 525 64 521 C64 481 94 450 136 450 L158 450 C205 450 248 488 256 534 L277 669 Z " />
<glyph glyph-name="guilsinglleft" unicode="&#x2039;" horiz-adv-x="550" d="M414 410 C417 413 418 417 418 419 C418 424 414 427 407 427 L356 427 C353 427 347 424 345 422 L229 281 C229 281 226 276 226 275 L221 242 L221 242 C221 241 222 237 222 236 L293 95 C294 93 300 90 302 90 L354 90 C362 90 368 95 368 101 C368 103 367 105 366 107 L290 256 L291 261 L414 410 Z " />
<glyph glyph-name="guilsinglright" unicode="&#x203a;" horiz-adv-x="550" d="M294 275 L294 275 C294 276 293 281 293 281 L221 422 C220 424 214 427 212 427 L161 427 C152 427 147 423 147 416 C147 414 147 412 148 410 L224 261 L223 256 L100 107 C98 104 96 101 96 98 C96 93 100 90 107 90 L159 90 C161 90 168 93 169 95 L285 236 C286 237 288 242 288 242 L294 275 Z " />
<glyph glyph-name="fraction" unicode="&#x2044;" horiz-adv-x="550" d="M512 727 C514 730 514 732 514 734 C514 739 511 742 504 742 L456 742 C453 742 446 738 444 735 L38 15 C36 13 36 10 36 8 C36 3 39 0 46 0 L94 0 C97 0 104 4 106 7 L512 727 Z " />
<glyph glyph-name="Euro" unicode="&#x20ac;" horiz-adv-x="550" d="M500 585 C502 594 502 603 502 612 C502 692 442 754 358 754 L324 754 C231 754 144 678 129 585 L105 436 L29 410 C24 408 20 402 20 397 C20 397 20 396 20 395 L29 353 C30 349 34 346 38 346 C40 346 41 346 42 346 L94 364 L84 299 L19 277 C14 275 10 270 10 265 C10 264 10 263 10 263 L19 220 C20 216 24 213 29 213 C30 213 31 213 32 214 L72 227 L61 157 C60 148 59 140 59 131 C59 50 119 -11 203 -11 L237 -11 C330 -11 418 64 432 157 L438 191 C438 192 438 192 438 193 C438 198 434 202 428 202 L383 202 C377 202 371 197 370 191 L365 157 C356 102 304 56 248 56 L214 56 C163 56 127 93 127 142 C127 147 128 152 129 157 L144 252 L345 321 C351 323 355 329 355 334 C355 335 355 335 354 336 L346 378 C345 383 341 386 336 386 C335 386 334 385 332 385 L155 324 L165 389 L355 454 C360 456 364 461 364 467 L364 468 L355 511 C355 515 350 518 346 518 C345 518 343 518 342 517 L177 461 L196 585 C205 641 258 686 314 686 L347 686 C398 686 434 649 434 601 C434 596 433 590 433 585 L429 562 L429 561 C429 556 433 551 439 551 L484 551 C489 551 496 557 497 562 L500 585 Z " />
<glyph glyph-name="trademark" unicode="&#x2122;" horiz-adv-x="550" d="M276 731 C276 732 276 732 276 733 C276 738 272 742 266 742 L86 742 C80 742 74 737 73 731 L70 709 C70 708 70 708 70 707 C70 702 74 697 79 697 L147 697 L109 461 L109 460 C109 454 113 450 119 450 L141 450 C147 450 153 455 154 461 L192 697 L259 697 C265 697 271 703 272 709 L276 731 Z M591 731 C591 732 591 732 591 733 C591 738 587 742 581 742 L528 742 C524 742 517 738 516 734 L413 496 L386 734 C385 738 380 742 376 742 L323 742 C317 742 310 737 310 731 L267 461 L267 460 C267 454 271 450 276 450 L299 450 C305 450 311 455 312 461 L346 676 L371 458 C371 454 376 450 380 450 L431 450 C435 450 442 454 443 458 L537 676 L503 461 L503 460 C503 454 507 450 512 450 L535 450 C541 450 547 455 548 461 L591 731 Z " />
<glyph glyph-name="Omega" unicode="&#x2126;" horiz-adv-x="550" d="M500 585 C502 594 502 603 502 612 C502 692 442 754 358 754 L313 754 C220 754 132 678 118 585 L62 236 C61 227 60 218 60 210 C60 156 87 111 129 87 L126 67 L36 67 C30 67 24 62 23 56 L15 11 L15 10 C15 4 20 0 25 0 L171 0 C177 0 183 5 184 11 L202 125 C202 126 203 127 203 128 C203 132 201 137 193 138 C173 141 128 165 128 219 C128 225 129 230 130 236 L185 585 C194 641 246 686 302 686 L347 686 C398 686 434 649 434 601 C434 596 433 590 433 585 L377 236 C367 171 306 141 283 138 C273 136 271 130 270 125 L252 11 L252 10 C252 4 256 0 261 0 L407 0 C413 0 420 5 420 11 L428 56 C428 57 428 57 428 58 C428 63 424 67 418 67 L328 67 L331 87 C389 115 435 171 445 236 L500 585 Z " />
<glyph glyph-name="partialdiff" unicode="&#x2202;" horiz-adv-x="550" d="M380 326 L354 157 C345 102 292 56 236 56 L214 56 C163 56 127 93 127 142 C127 147 128 152 129 157 L155 326 C164 382 217 427 273 427 L295 427 C346 427 382 391 382 342 C382 337 381 332 380 326 L380 326 Z M487 574 C489 583 489 592 489 600 C489 681 429 742 345 742 L278 742 C272 742 265 737 265 731 L257 686 L257 685 C257 679 261 675 267 675 L334 675 C385 675 421 638 421 590 C421 585 420 579 420 574 L402 461 C377 482 344 495 306 495 L283 495 C190 495 103 419 88 326 L61 157 C60 148 59 140 59 131 C59 50 119 -11 203 -11 L226 -11 C319 -11 406 64 421 157 L487 574 Z " />
<glyph glyph-name="Delta" unicode="&#x2206;" horiz-adv-x="550" d="M361 75 L360 67 L94 67 L95 75 L319 675 L327 675 L361 75 Z M429 83 L393 734 C393 738 388 742 383 742 L284 742 C280 742 273 738 272 734 L29 83 L29 81 L18 11 L18 10 C18 4 22 0 27 0 L405 0 C411 0 417 5 418 11 L429 81 L429 83 Z " />
<glyph glyph-name="product" unicode="&#x220f;" horiz-adv-x="550" d="M454 675 L400 339 L103 67 L96 67 L150 403 L447 675 L454 675 Z M530 731 C530 732 530 732 530 733 C530 738 526 742 521 742 L433 742 C432 742 425 740 424 739 L90 433 C89 432 86 426 86 425 L20 11 L20 10 C20 4 24 0 29 0 L117 0 C118 0 125 3 126 4 L460 310 C461 311 464 316 464 317 L530 731 Z " />
<glyph glyph-name="summation" unicode="&#x2211;" horiz-adv-x="550" d="M512 731 C512 732 512 732 512 733 C512 738 508 742 503 742 L165 742 C159 742 153 737 152 731 L140 658 L140 658 C140 657 141 653 141 652 L253 374 L252 369 L52 90 L50 85 L38 11 L38 10 C38 4 42 0 47 0 L385 0 C391 0 397 5 398 11 L421 157 C421 158 421 159 421 159 C421 164 417 169 412 169 L367 169 C361 169 355 163 354 157 L339 67 L114 67 L115 70 L315 349 L317 354 L323 388 L323 388 C323 389 322 394 322 394 L210 673 L211 675 L436 675 L423 596 L423 595 C423 589 427 585 433 585 L478 585 C484 585 490 590 491 596 L512 731 Z " />
<glyph glyph-name="minus" unicode="&#x2212;" horiz-adv-x="550" d="M420 292 C420 293 420 294 420 294 C420 299 416 304 411 304 L118 304 C112 304 106 298 105 292 L98 247 L98 246 C98 241 102 236 107 236 L400 236 C406 236 412 242 413 247 L420 292 Z " />
<glyph glyph-name="radical" unicode="&#x221a;" horiz-adv-x="550" d="M546 731 C546 732 546 732 546 733 C546 738 542 742 536 742 L351 742 C347 742 340 738 339 733 L122 107 L129 350 L129 350 C129 355 124 360 119 360 L74 360 C66 360 61 354 60 347 L52 10 L52 10 C52 5 57 0 62 0 L145 0 C149 0 156 5 157 9 L387 675 L526 675 C532 675 538 680 539 686 L546 731 Z " />
<glyph glyph-name="infinity" unicode="&#x221e;" horiz-adv-x="550" d="M214 270 C189 248 160 225 128 225 C111 225 99 237 99 253 C99 255 99 257 100 259 L103 281 C106 300 124 315 142 315 C173 315 194 295 214 270 L214 270 Z M418 281 L415 259 C412 240 394 225 376 225 C345 225 324 245 304 270 C332 295 359 315 390 315 C407 315 419 303 419 287 C419 285 419 283 418 281 L418 281 Z M486 281 C487 287 487 292 487 297 C487 346 451 382 401 382 C344 382 304 354 267 319 C240 353 208 382 153 382 C97 382 45 337 36 281 L32 259 C31 253 31 248 31 243 C31 194 67 157 117 157 C172 157 214 187 251 220 C278 187 310 157 365 157 C421 157 473 203 482 259 L486 281 Z " />
<glyph glyph-name="integral" unicode="&#x222b;" horiz-adv-x="550" d="M545 585 C547 595 548 605 548 615 C548 691 500 754 414 754 L392 754 C295 754 222 674 208 585 L97 -113 C93 -137 70 -158 45 -158 C39 -158 33 -163 32 -169 L25 -214 L25 -215 C25 -221 29 -225 34 -225 C96 -225 155 -175 165 -113 L275 585 C285 645 329 686 381 686 L404 686 C450 686 479 654 479 606 C479 599 479 592 478 585 L470 540 C470 539 470 539 470 538 C470 533 475 529 480 529 L525 529 C531 529 537 534 538 540 L545 585 Z " />
<glyph glyph-name="approxequal" unicode="&#x2248;" horiz-adv-x="550" d="M443 225 C443 226 443 226 443 227 C443 232 439 236 434 236 L389 236 C383 236 377 231 376 225 L372 202 C371 194 355 169 329 169 C313 169 294 178 272 204 C240 243 204 258 171 258 C110 258 58 207 50 157 L46 135 C46 134 46 134 46 133 C46 128 50 124 56 124 L101 124 C107 124 113 129 114 135 L117 157 C119 166 135 191 161 191 C176 191 195 182 217 156 C250 117 286 102 319 102 C380 102 432 153 440 202 L443 225 Z M472 405 C472 406 472 406 472 407 C472 412 468 416 462 416 L417 416 C411 416 405 411 404 405 L401 382 C399 374 383 349 357 349 C342 349 323 358 301 384 C268 423 232 438 199 438 C138 438 86 387 78 337 L75 315 C75 314 75 314 75 313 C75 308 79 304 84 304 L129 304 C135 304 141 309 142 315 L146 337 C147 346 163 371 189 371 C205 371 224 362 246 336 C278 297 314 282 347 282 C408 282 460 333 468 382 L472 405 Z " />
<glyph glyph-name="notequal" unicode="&#x2260;" horiz-adv-x="550" d="M431 360 C431 361 431 361 431 362 C431 367 427 371 421 371 L348 371 L377 428 C378 429 379 431 379 433 C379 437 376 441 373 442 L333 457 C332 458 331 458 329 458 C325 458 320 455 317 451 L276 371 L129 371 C123 371 117 366 116 360 L109 315 C109 314 108 314 108 313 C108 308 113 304 118 304 L241 304 L205 236 L107 236 C101 236 95 231 94 225 L87 180 C87 179 87 179 87 178 C87 173 91 169 97 169 L170 169 L141 112 C140 111 139 109 139 107 C139 103 142 99 145 98 L185 83 C186 82 187 82 189 82 C193 82 198 85 200 89 L242 169 L389 169 C395 169 401 174 402 180 L409 225 C409 226 409 226 409 227 C409 232 405 236 400 236 L277 236 L313 304 L411 304 C417 304 423 309 424 315 L431 360 Z " />
<glyph glyph-name="lessequal" unicode="&#x2264;" horiz-adv-x="550" d="M404 191 C404 192 404 192 404 193 C404 198 400 202 395 202 L102 202 C96 202 90 197 89 191 L82 146 L82 145 C82 139 86 135 91 135 L384 135 C390 135 396 140 397 146 L404 191 Z M450 484 C451 485 451 486 451 487 C451 492 447 496 442 496 C441 496 439 496 438 495 L134 422 C130 421 124 415 124 411 L111 331 C111 331 111 331 111 330 C111 326 114 321 118 320 L399 247 C400 247 401 247 402 247 C408 247 413 251 415 258 L422 304 C422 305 422 305 422 305 C422 309 419 314 415 315 L189 371 L433 427 C437 428 442 434 443 438 L450 484 Z " />
<glyph glyph-name="greaterequal" unicode="&#x2265;" horiz-adv-x="550" d="M404 191 C404 192 404 192 404 193 C404 198 400 202 395 202 L102 202 C96 202 90 197 89 191 L82 146 L82 145 C82 139 86 135 91 135 L384 135 C390 135 396 140 397 146 L404 191 Z M439 411 C439 412 439 412 439 412 C439 416 436 421 432 422 L151 495 C150 496 149 496 148 496 C142 496 137 491 135 484 L128 438 L128 437 C128 433 131 428 135 427 L361 371 L117 315 C113 314 108 309 107 304 L100 258 C99 257 99 256 99 256 C99 250 103 247 108 247 C109 247 111 247 112 247 L416 320 C420 321 426 327 426 331 L439 411 Z " />
<glyph glyph-name="lozenge" unicode="&#x25ca;" horiz-adv-x="550" d="M424 375 L423 368 L231 67 L223 67 L126 368 L127 375 L319 675 L327 675 L424 375 Z M494 388 L494 388 C494 389 493 393 493 393 L382 736 C381 739 375 742 372 742 L295 742 C292 742 286 739 284 736 L64 393 C63 393 62 388 62 388 L56 355 L56 355 C56 354 57 350 57 350 L168 6 C169 4 175 0 178 0 L255 0 C258 0 264 4 266 6 L486 350 C487 350 488 354 488 355 L494 388 Z " />
<glyph glyph-name="fi" unicode="&#xfb01;" horiz-adv-x="550" d="M489 585 C490 595 491 605 491 615 C491 691 444 754 358 754 L336 754 C239 754 165 674 151 585 L137 495 L70 495 C64 495 58 490 57 484 L49 439 C49 438 49 438 49 437 C49 432 53 427 59 427 L126 427 L69 67 L2 67 C-4 67 -10 62 -11 56 L-18 11 L-18 10 C-18 4 -14 0 -9 0 L194 0 C200 0 206 5 207 11 L214 56 C214 57 214 57 214 58 C214 63 210 67 204 67 L137 67 L194 427 L396 427 L339 67 L272 67 C266 67 260 62 259 56 L252 11 L252 10 C252 4 256 0 261 0 L464 0 C470 0 476 5 477 11 L484 56 C484 57 484 57 484 58 C484 63 480 67 474 67 L407 67 L473 484 L473 485 C473 491 469 495 463 495 L205 495 L219 585 C228 645 273 686 325 686 L347 686 C393 686 423 654 423 606 C423 599 422 592 421 585 L420 574 C419 573 419 573 419 572 C419 567 424 562 429 562 L474 562 C480 562 486 568 487 574 L489 585 Z " />
<glyph glyph-name="fl" unicode="&#xfb02;" horiz-adv-x="550" d="M421 585 L339 67 L137 67 L194 427 L318 427 C324 427 330 433 331 439 L338 484 L338 485 C338 491 334 495 328 495 L205 495 L219 585 C228 645 273 686 325 686 L347 686 C393 686 423 654 423 606 C423 599 422 592 421 585 L421 585 Z M489 585 C490 595 491 605 491 615 C491 691 444 754 358 754 L336 754 C239 754 165 674 151 585 L137 495 L70 495 C64 495 58 490 57 484 L49 439 C49 438 49 438 49 437 C49 432 53 427 59 427 L126 427 L69 67 L-21 67 C-27 67 -33 62 -34 56 L-41 11 L-41 10 C-41 4 -37 0 -31 0 L464 0 C470 0 476 5 477 11 L484 56 C484 57 484 57 484 58 C484 63 480 67 474 67 L407 67 L489 585 Z " />
</font>
</svg>
